<svg width="24" height="24" viewBox="0 0 24 24" fill="none" xmlns="http://www.w3.org/2000/svg">
<path d="M10.4986 7.77021C10.5893 7.67662 10.662 7.56376 10.7125 7.43836C10.7629 7.31296 10.79 7.17759 10.7922 7.04032C10.7944 6.90306 10.7716 6.76672 10.7252 6.63942C10.6788 6.51213 10.6097 6.3965 10.522 6.29942C10.4344 6.20235 10.33 6.12582 10.215 6.0744C10.1001 6.02299 9.97697 5.99774 9.85303 6.00016C9.72909 6.00258 9.60686 6.03262 9.49363 6.0885C9.3804 6.14437 9.27849 6.22493 9.19399 6.32537L4.27098 11.7776C4.18509 11.8723 4.11694 11.9849 4.07044 12.1089C4.02394 12.2328 4 12.3658 4 12.5C4 12.6342 4.02394 12.7672 4.07044 12.8911C4.11694 13.0151 4.18509 13.1277 4.27098 13.2224L9.19399 18.6746C9.27849 18.7751 9.3804 18.8556 9.49363 18.9115C9.60686 18.9674 9.72909 18.9974 9.85303 18.9998C9.97697 19.0023 10.1001 18.977 10.215 18.9256C10.33 18.8742 10.4344 18.7977 10.522 18.7006C10.6097 18.6035 10.6788 18.4879 10.7252 18.3606C10.7716 18.2333 10.7944 18.0969 10.7922 17.9597C10.79 17.8224 10.7629 17.687 10.7125 17.5616C10.662 17.4362 10.5893 17.3234 10.4986 17.2298L7.15094 13.5223H19.0769C19.3217 13.5223 19.5565 13.4146 19.7296 13.2229C19.9027 13.0312 20 12.7711 20 12.5C20 12.2289 19.9027 11.9688 19.7296 11.7771C19.5565 11.5854 19.3217 11.4777 19.0769 11.4777H7.15094L10.4986 7.77021Z" fill="#4E607E"/>
</svg>
