<svg width="22" height="22" viewBox="0 0 22 22" fill="none" xmlns="http://www.w3.org/2000/svg">
<g clip-path="url(#clip0_480_51)">
<path d="M16.0601 5.57362C15.9323 5.57664 15.8109 5.63009 15.7224 5.72231L11.0645 10.3802L6.40663 5.72231C6.36153 5.67586 6.30756 5.63894 6.24793 5.61372C6.1883 5.58851 6.12422 5.57551 6.05948 5.57551C5.96318 5.57553 5.86908 5.60429 5.78921 5.65809C5.70935 5.7119 5.64735 5.7883 5.61116 5.87754C5.57496 5.96678 5.56621 6.06478 5.58603 6.15902C5.60585 6.25325 5.65333 6.33944 5.7224 6.40653L10.3803 11.0644L5.7224 15.7223C5.67597 15.7669 5.63889 15.8203 5.61335 15.8794C5.58781 15.9385 5.57432 16.0021 5.57366 16.0665C5.57301 16.1308 5.58521 16.1947 5.60954 16.2543C5.63387 16.3139 5.66985 16.368 5.71538 16.4136C5.7609 16.4591 5.81504 16.4951 5.87465 16.5194C5.93425 16.5437 5.9981 16.5559 6.06248 16.5553C6.12685 16.5546 6.19045 16.5411 6.24954 16.5156C6.30864 16.49 6.36204 16.453 6.40663 16.4065L11.0645 11.7486L15.7224 16.4065C15.767 16.453 15.8204 16.49 15.8795 16.5156C15.9386 16.5411 16.0022 16.5546 16.0666 16.5553C16.1309 16.5559 16.1948 16.5437 16.2544 16.5194C16.314 16.4951 16.3681 16.4591 16.4137 16.4136C16.4592 16.368 16.4952 16.3139 16.5195 16.2543C16.5438 16.1947 16.556 16.1308 16.5554 16.0665C16.5547 16.0021 16.5412 15.9385 16.5157 15.8794C16.4901 15.8203 16.4531 15.7669 16.4066 15.7223L11.7487 11.0644L16.4066 6.40653C16.477 6.339 16.5253 6.25178 16.5452 6.15631C16.5652 6.06084 16.5558 5.96157 16.5183 5.87152C16.4809 5.78148 16.4171 5.70485 16.3353 5.65169C16.2535 5.59853 16.1576 5.57132 16.0601 5.57362Z" fill="white"/>
</g>
<defs>
<clipPath id="clip0_480_51">
<rect width="22" height="22" rx="5.16129" fill="white"/>
</clipPath>
</defs>
</svg>
