<svg width="24" height="24" viewBox="0 0 24 24" fill="none" xmlns="http://www.w3.org/2000/svg">
<path d="M20.1366 9.80062C19.4306 9.49031 18.6187 9.86203 18.3319 10.6266L16.6875 14.625H16.1592V3.75C16.1592 2.925 15.5358 2.25 14.7741 2.25C14.0119 2.25 13.3889 2.925 13.3889 3.75V10.8633L12.6961 10.875V1.5C12.6961 0.675 12.0727 0 11.3109 0C10.5492 0 9.92578 0.675 9.92578 1.5V10.8633L9.23438 10.875V3C9.23438 2.175 8.61094 1.5 7.84922 1.5C7.08703 1.5 6.46406 2.175 6.46406 3V11.6133L5.77031 11.625V6C5.77031 5.175 5.14688 4.5 4.38516 4.5C3.62344 4.5 3 5.175 3 6V16.125C3 19.6781 4.74047 24 10.9219 24C12.8344 24 14.6447 23.6719 15.6403 23.0156C16.2647 22.6041 16.8018 22.0735 17.2209 21.4542C17.5342 20.9921 17.7863 20.4914 17.9709 19.9645L20.8983 11.7548C21.1875 10.9903 20.8425 10.1114 20.1366 9.80062Z" fill="white"/>
</svg>
