<svg width="24" height="24" viewBox="0 0 24 24" fill="none" xmlns="http://www.w3.org/2000/svg">
<path d="M12 19.875C9.91142 19.875 7.90838 19.0453 6.43153 17.5685C4.95468 16.0916 4.125 14.0886 4.125 12C4.125 9.91142 4.95468 7.90838 6.43153 6.43153C7.90838 4.95468 9.91142 4.125 12 4.125C14.0886 4.125 16.0916 4.95468 17.5685 6.43153C19.0453 7.90838 19.875 9.91142 19.875 12C19.875 14.0886 19.0453 16.0916 17.5685 17.5685C16.0916 19.0453 14.0886 19.875 12 19.875ZM12 21C14.3869 21 16.6761 20.0518 18.364 18.364C20.0518 16.6761 21 14.3869 21 12C21 9.61305 20.0518 7.32387 18.364 5.63604C16.6761 3.94821 14.3869 3 12 3C9.61305 3 7.32387 3.94821 5.63604 5.63604C3.94821 7.32387 3 9.61305 3 12C3 14.3869 3.94821 16.6761 5.63604 18.364C7.32387 20.0518 9.61305 21 12 21Z" fill="#EF4444"/>
<path d="M8 10C8 9.46957 8.21071 8.96086 8.58579 8.58579C8.96086 8.21071 9.46957 8 10 8H14C14.5304 8 15.0391 8.21071 15.4142 8.58579C15.7893 8.96086 16 9.46957 16 10V14C16 14.5304 15.7893 15.0391 15.4142 15.4142C15.0391 15.7893 14.5304 16 14 16H10C9.46957 16 8.96086 15.7893 8.58579 15.4142C8.21071 15.0391 8 14.5304 8 14V10Z" fill="#EF4444"/>
</svg>
