<svg width="24" height="24" viewBox="0 0 24 24" fill="none" xmlns="http://www.w3.org/2000/svg">
<path fill-rule="evenodd" clip-rule="evenodd" d="M6.71637 17.9105H3.73124C2.49488 17.9105 1.49243 16.9082 1.49243 15.6717V5.97013C1.49243 4.73377 2.49488 3.73132 3.73124 3.73132H20.1492C21.3857 3.73132 22.388 4.73377 22.388 5.97013V15.6717C22.388 16.9082 21.3857 17.9105 20.1492 17.9105H17.1641V18.492C17.1641 18.9316 16.9895 19.3531 16.6787 19.6639C16.3679 19.9747 15.9463 20.1493 15.5068 20.1493H8.37362C7.93409 20.1493 7.51256 19.9747 7.20177 19.6639C6.89097 19.3531 6.71637 18.9316 6.71637 18.492V17.9105ZM8.20885 17.9105V18.492C8.20885 18.583 8.28264 18.6568 8.37362 18.6568H15.5068C15.5505 18.6568 15.5924 18.6395 15.6233 18.6086C15.6542 18.5777 15.6716 18.5357 15.6716 18.492V17.9105H8.20885ZM20.8955 5.97013V15.6717C20.8955 15.8696 20.8169 16.0595 20.6769 16.1994C20.537 16.3394 20.3471 16.418 20.1492 16.418H3.73124C3.53333 16.418 3.34354 16.3393 3.20362 16.1994C3.06369 16.0594 2.98509 15.8696 2.98509 15.6717V5.97013C2.98509 5.77224 3.0637 5.58245 3.20363 5.44252C3.34356 5.30259 3.53335 5.22398 3.73124 5.22398H20.1492C20.3471 5.22398 20.5369 5.30259 20.6769 5.44251C20.8168 5.58244 20.8955 5.77222 20.8955 5.97013ZM11.194 10.0107L10.3572 10.8475C10.066 11.1387 9.59297 11.1387 9.30174 10.8475C9.01052 10.5563 9.01052 10.0833 9.30174 9.79204L11.4125 7.68129C11.5525 7.54138 11.7423 7.46278 11.9402 7.46278C12.1381 7.46278 12.328 7.54138 12.468 7.68129L14.5787 9.79204C14.8699 10.0833 14.8699 10.5563 14.5787 10.8475C14.2875 11.1387 13.8146 11.1387 13.5234 10.8475L12.6865 10.0107V13.4329C12.6865 13.8448 12.3521 14.1792 11.9403 14.1792C11.7424 14.1791 11.5526 14.1004 11.4127 13.9605C11.2727 13.8206 11.1941 13.6308 11.194 13.4329V10.0107Z" fill="#9CA3AF"/>
</svg>
