<svg width="20" height="20" viewBox="0 0 20 20" fill="none" xmlns="http://www.w3.org/2000/svg">
<path fill-rule="evenodd" clip-rule="evenodd" d="M11.9875 12.8716C10.8643 13.769 9.4401 14.2023 8.00741 14.0825C6.57472 13.9626 5.24229 13.2988 4.28379 12.2272C3.32529 11.1556 2.81348 9.75774 2.85347 8.3206C2.89345 6.88346 3.48221 5.51618 4.49881 4.49958C5.51542 3.48297 6.8827 2.89422 8.31983 2.85423C9.75697 2.81424 11.1549 3.32606 12.2264 4.28456C13.298 5.24306 13.9619 6.57548 14.0817 8.00817C14.2016 9.44086 13.7683 10.8651 12.8708 11.9883L17.1675 16.2841C17.2289 16.3413 17.2782 16.4103 17.3123 16.487C17.3465 16.5636 17.3648 16.6464 17.3663 16.7303C17.3678 16.8142 17.3524 16.8976 17.3209 16.9754C17.2895 17.0533 17.2427 17.1239 17.1834 17.1833C17.124 17.2426 17.0533 17.2894 16.9755 17.3209C16.8977 17.3523 16.8143 17.3677 16.7304 17.3663C16.6465 17.3648 16.5637 17.3464 16.4871 17.3122C16.4104 17.2781 16.3414 17.2288 16.2842 17.1674L11.9875 12.8716ZM5.3825 11.5699C4.77087 10.9582 4.3543 10.179 4.18543 9.33057C4.01656 8.48219 4.10298 7.60279 4.43376 6.80351C4.76454 6.00423 5.32484 5.32095 6.04385 4.84002C6.76285 4.35908 7.60829 4.10208 8.47331 4.1015C9.33833 4.10092 10.1841 4.35678 10.9038 4.83675C11.6234 5.31671 12.1846 5.99924 12.5165 6.79808C12.8483 7.59691 12.936 8.47619 12.7682 9.3248C12.6005 10.1734 12.185 10.9532 11.5742 11.5658L11.57 11.5699L11.5658 11.5733C10.7451 12.3921 9.63286 12.8517 8.47348 12.8511C7.3141 12.8505 6.20237 12.3897 5.3825 11.5699Z" fill="white"/>
</svg>
