<svg width="36" height="37" viewBox="0 0 36 37" fill="none" xmlns="http://www.w3.org/2000/svg">
<g clip-path="url(#clip0_1234_3916)">
<path d="M18 2.5C14.8355 2.5 11.7421 3.43838 9.11088 5.19649C6.4797 6.95459 4.42894 9.45345 3.21793 12.3771C2.00693 15.3007 1.69008 18.5177 2.30744 21.6214C2.92481 24.7251 4.44866 27.5761 6.6863 29.8137C8.92394 32.0513 11.7749 33.5752 14.8786 34.1926C17.9823 34.8099 21.1993 34.4931 24.1229 33.2821C27.0466 32.0711 29.5454 30.0203 31.3035 27.3891C33.0616 24.7579 34 21.6645 34 18.5C34 14.2565 32.3143 10.1869 29.3137 7.18629C26.3131 4.18571 22.2435 2.5 18 2.5ZM28.45 13.13L15.31 26.26L7.55001 18.5C7.28479 18.2348 7.13579 17.8751 7.13579 17.5C7.13579 17.1249 7.28479 16.7652 7.55001 16.5C7.81522 16.2348 8.17493 16.0858 8.55001 16.0858C8.92508 16.0858 9.28479 16.2348 9.55001 16.5L15.33 22.28L26.47 11.15C26.6013 11.0187 26.7572 10.9145 26.9288 10.8434C27.1004 10.7724 27.2843 10.7358 27.47 10.7358C27.6557 10.7358 27.8396 10.7724 28.0112 10.8434C28.1828 10.9145 28.3387 11.0187 28.47 11.15C28.6013 11.2813 28.7055 11.4372 28.7766 11.6088C28.8476 11.7804 28.8842 11.9643 28.8842 12.15C28.8842 12.3357 28.8476 12.5196 28.7766 12.6912C28.7055 12.8628 28.6013 13.0187 28.47 13.15L28.45 13.13Z" fill="#00C637"/>
</g>
<defs>
<clipPath id="clip0_1234_3916">
<rect width="36" height="36" fill="white" transform="translate(0 0.5)"/>
</clipPath>
</defs>
</svg>
