<svg width="20" height="20" viewBox="0 0 20 20" fill="none" xmlns="http://www.w3.org/2000/svg">
<path d="M14.2857 9.99865C14.2857 10.5527 14.1984 11.0861 14.0387 11.5831L13.2829 10.7835C13.3324 10.5252 13.3573 10.2622 13.3571 9.99865V9.01634C13.3571 8.88608 13.4061 8.76115 13.4931 8.66904C13.5802 8.57693 13.6983 8.52518 13.8214 8.52518C13.9446 8.52518 14.0627 8.57693 14.1497 8.66904C14.2368 8.76115 14.2857 8.88608 14.2857 9.01634V9.99865ZM9.64286 13.9279C10.4024 13.9279 11.1081 13.6872 11.6969 13.2727L12.3636 13.979C11.7001 14.4864 10.9217 14.7992 10.1071 14.8857L10.1071 16.8749H12.8929C13.016 16.8749 13.1341 16.9266 13.2212 17.0187C13.3082 17.1108 13.3571 17.2357 13.3571 17.366C13.3571 17.4963 13.3082 17.6212 13.2212 17.7133C13.1341 17.8054 13.016 17.8572 12.8929 17.8572H6.39286C6.26972 17.8572 6.15163 17.8054 6.06456 17.7133C5.97749 17.6212 5.92857 17.4963 5.92857 17.366C5.92857 17.2357 5.97749 17.1108 6.06456 17.0187C6.15163 16.9266 6.26972 16.8749 6.39286 16.8749H9.17857L9.17857 14.8857C8.03335 14.7639 6.97171 14.1965 6.1996 13.2935C5.4275 12.3905 4.99999 11.2163 5 9.99865V9.01634C5 8.88608 5.04892 8.76115 5.13599 8.66904C5.22306 8.57693 5.34115 8.52518 5.46429 8.52518C5.58742 8.52518 5.70551 8.57693 5.79259 8.66904C5.87966 8.76115 5.92857 8.88608 5.92857 9.01634V9.99865C5.92857 11.0408 6.3199 12.0402 7.01646 12.7771C7.71302 13.5139 8.65777 13.9279 9.64286 13.9279ZM12.4286 5.08708V9.87979L11.5 8.89748V5.08708C11.5021 4.57457 11.3149 4.08146 10.9782 3.71295C10.6415 3.34445 10.1819 3.12973 9.69768 3.11461C9.21341 3.09949 8.74273 3.28515 8.38605 3.632C8.02937 3.97885 7.81494 4.45941 7.7885 4.97117L7.00386 4.14111C7.21645 3.48025 7.64383 2.92064 8.20992 2.56191C8.77601 2.20318 9.44407 2.0686 10.0952 2.18214C10.7463 2.29568 11.3382 2.64997 11.7655 3.18193C12.1928 3.71389 12.4277 4.389 12.4286 5.08708Z" fill="#9CA3AF"/>
<path d="M11.0628 12.3751L10.348 11.6604C10.0582 11.7755 9.74451 11.8179 9.43447 11.7839C9.12443 11.7499 8.82743 11.6405 8.56939 11.4653C8.31134 11.2901 8.1001 11.0544 7.95411 10.7788C7.80811 10.5031 7.73179 10.196 7.73181 9.88407V9.04512L6.77628 8.08959L6.77628 9.88407C6.77614 10.386 6.90779 10.8792 7.15809 11.3143C7.40839 11.7494 7.76854 12.1112 8.20254 12.3634C8.63653 12.6156 9.12914 12.7494 9.63109 12.7515C10.133 12.7536 10.6267 12.6238 11.0628 12.3751ZM3.57144 3.53363L15.0378 15L15.7143 14.3235L4.24796 2.85712L3.57144 3.53363Z" fill="#9CA3AF"/>
</svg>
