<svg width="20" height="20" viewBox="0 0 20 20" fill="none" xmlns="http://www.w3.org/2000/svg">
<path d="M9.99992 0.833374C4.94575 0.833374 0.833252 4.94587 0.833252 10C0.833252 15.0542 4.94575 19.1667 9.99992 19.1667C15.0541 19.1667 19.1666 15.0542 19.1666 10C19.1666 4.94587 15.0541 0.833374 9.99992 0.833374ZM9.99992 17.5C5.8645 17.5 2.49992 14.1355 2.49992 10C2.49992 5.86462 5.8645 2.50004 9.99992 2.50004C14.1353 2.50004 17.4999 5.86462 17.4999 10C17.4999 14.1355 14.1353 17.5 9.99992 17.5Z" fill="#505763"/>
<path d="M2.08325 10C2.08325 5.63623 5.63611 2.08337 9.99992 2.08337C14.3637 2.08337 17.9166 5.63623 17.9166 10C17.9166 14.3639 14.3637 17.9167 9.99992 17.9167C5.63611 17.9167 2.08325 14.3639 2.08325 10Z" fill="#AAB0BB" stroke="white" stroke-width="2.5"/>
<path d="M14.5111 12.0055C14.421 12.2072 14.2547 12.365 14.0484 12.4442C13.8422 12.5234 13.613 12.5176 13.4111 12.428L9.66109 10.7613C9.51388 10.6958 9.38882 10.5891 9.30104 10.454C9.21326 10.3189 9.16653 10.1612 9.1665 10.0001V5.00008C9.1665 4.77907 9.2543 4.56711 9.41058 4.41083C9.56686 4.25455 9.77882 4.16675 9.99984 4.16675C10.2209 4.16675 10.4328 4.25455 10.5891 4.41083C10.7454 4.56711 10.8332 4.77907 10.8332 5.00008V9.45842L14.0882 10.9055C14.2901 10.9953 14.4481 11.1616 14.5274 11.3679C14.6068 11.5742 14.6009 11.8035 14.5111 12.0055Z" fill="white"/>
<path d="M9.99992 0.833374C4.94575 0.833374 0.833252 4.94587 0.833252 10C0.833252 15.0542 4.94575 19.1667 9.99992 19.1667C15.0541 19.1667 19.1666 15.0542 19.1666 10C19.1666 4.94587 15.0541 0.833374 9.99992 0.833374ZM9.99992 17.5C5.8645 17.5 2.49992 14.1355 2.49992 10C2.49992 5.86462 5.8645 2.50004 9.99992 2.50004C14.1353 2.50004 17.4999 5.86462 17.4999 10C17.4999 14.1355 14.1353 17.5 9.99992 17.5Z" fill="#505763"/>
</svg>
