<svg width="16" height="16" viewBox="0 0 16 16" fill="none" xmlns="http://www.w3.org/2000/svg">
<path d="M13.0602 2.57374C12.9324 2.57676 12.811 2.63021 12.7225 2.72243L8.06461 7.38032L3.40672 2.72243C3.36162 2.67599 3.30765 2.63906 3.24802 2.61385C3.18839 2.58863 3.12431 2.57564 3.05957 2.57563C2.96327 2.57566 2.86917 2.60441 2.7893 2.65821C2.70944 2.71202 2.64744 2.78843 2.61125 2.87766C2.57505 2.9669 2.56631 3.0649 2.58612 3.15914C2.60594 3.25338 2.65342 3.33956 2.7225 3.40666L7.38038 8.06454L2.7225 12.7224C2.67606 12.767 2.63898 12.8204 2.61344 12.8795C2.5879 12.9386 2.57441 13.0022 2.57376 13.0666C2.5731 13.131 2.5853 13.1948 2.60963 13.2544C2.63396 13.314 2.66995 13.3682 2.71547 13.4137C2.76099 13.4592 2.81514 13.4952 2.87474 13.5195C2.93434 13.5439 2.9982 13.5561 3.06257 13.5554C3.12694 13.5547 3.19054 13.5412 3.24963 13.5157C3.30873 13.4902 3.36213 13.4531 3.40672 13.4067L8.06461 8.74877L12.7225 13.4067C12.7671 13.4531 12.8205 13.4902 12.8796 13.5157C12.9387 13.5412 13.0023 13.5547 13.0666 13.5554C13.131 13.556 13.1949 13.5439 13.2545 13.5195C13.3141 13.4952 13.3682 13.4592 13.4137 13.4137C13.4593 13.3682 13.4952 13.314 13.5196 13.2544C13.5439 13.1948 13.5561 13.131 13.5555 13.0666C13.5548 13.0022 13.5413 12.9386 13.5158 12.8795C13.4902 12.8204 13.4532 12.767 13.4067 12.7224L8.74883 8.06454L13.4067 3.40666C13.4771 3.33912 13.5254 3.2519 13.5453 3.15643C13.5653 3.06096 13.5559 2.96169 13.5184 2.87164C13.481 2.7816 13.4172 2.70497 13.3354 2.65181C13.2536 2.59865 13.1577 2.57144 13.0602 2.57374V2.57374Z" fill="#9CA3AF"/>
</svg>
