<svg width="24" height="24" viewBox="0 0 24 24" fill="none" xmlns="http://www.w3.org/2000/svg">
<g clip-path="url(#clip0_1155_6671)">
<path d="M20.48 3.51205C19.3665 2.39647 18.0437 1.51177 16.5874 0.908741C15.1312 0.305713 13.5702 -0.00377058 11.994 -0.0019451C5.36598 -0.0019451 -0.00701904 5.37106 -0.00701904 11.9991C-0.00701904 15.3131 1.33698 18.3141 3.50898 20.4861C4.62244 21.6016 5.94527 22.4863 7.40153 23.0894C8.85779 23.6924 10.4188 24.0019 11.995 24.0001C18.623 24.0001 23.996 18.6271 23.996 11.9991C23.996 8.68505 22.652 5.68405 20.48 3.51205ZM18.938 18.9391C18.0268 19.8517 16.9445 20.5755 15.7531 21.069C14.5617 21.5625 13.2846 21.8161 11.995 21.8151C6.57198 21.8151 2.17598 17.4191 2.17598 11.9961C2.17497 10.7065 2.42849 9.42935 2.92201 8.23792C3.41554 7.0465 4.13936 5.96419 5.05198 5.05305C5.963 4.14055 7.04514 3.4168 8.23638 2.92328C9.42763 2.42976 10.7046 2.17617 11.994 2.17705C17.416 2.17705 21.812 6.57306 21.812 11.9951C21.8129 13.2845 21.5593 14.5614 21.0658 15.7527C20.5722 16.9439 19.8485 18.026 18.936 18.9371L18.938 18.9391Z" fill="#2E3238"/>
<path d="M13.537 12L17.392 8.14499C17.5822 7.93772 17.6849 7.66501 17.6788 7.38379C17.6727 7.10257 17.5582 6.83457 17.3593 6.63574C17.1603 6.4369 16.8922 6.3226 16.611 6.31668C16.3298 6.31077 16.0571 6.4137 15.85 6.60399L15.851 6.60299L11.996 10.458L8.14099 6.60299C7.93372 6.41283 7.66101 6.31008 7.37979 6.31617C7.09857 6.32227 6.83057 6.43675 6.63174 6.63572C6.4329 6.83468 6.3186 7.10275 6.31268 7.38398C6.30677 7.6652 6.4097 7.93784 6.59999 8.14499L6.59899 8.14399L10.454 11.999L6.59899 15.854C6.49053 15.9535 6.40332 16.0739 6.34263 16.208C6.28193 16.3421 6.24899 16.4871 6.2458 16.6343C6.24261 16.7814 6.26923 16.9277 6.32406 17.0643C6.37889 17.2009 6.46079 17.325 6.56484 17.4291C6.66889 17.5332 6.79293 17.6152 6.92949 17.6701C7.06606 17.7251 7.21233 17.7518 7.35949 17.7487C7.50665 17.7456 7.65166 17.7127 7.7858 17.6521C7.91993 17.5915 8.04041 17.5044 8.13999 17.396L8.14099 17.395L11.996 13.54L15.851 17.395C15.9505 17.5035 16.0709 17.5907 16.205 17.6514C16.3391 17.7121 16.4841 17.745 16.6313 17.7482C16.7784 17.7514 16.9247 17.7248 17.0613 17.6699C17.1979 17.6151 17.322 17.5332 17.4261 17.4291C17.5302 17.3251 17.6122 17.2011 17.6671 17.0645C17.7221 16.9279 17.7488 16.7817 17.7457 16.6345C17.7426 16.4873 17.7097 16.3423 17.6491 16.2082C17.5885 16.0741 17.5014 15.9536 17.393 15.854L17.392 15.853L13.537 12Z" fill="#2E3238"/>
</g>
<defs>
<clipPath id="clip0_1155_6671">
<rect width="24" height="24" fill="white"/>
</clipPath>
</defs>
</svg>
