<svg width="28" height="28" viewBox="0 0 28 28" fill="none" xmlns="http://www.w3.org/2000/svg">
<path fill-rule="evenodd" clip-rule="evenodd" d="M14 9.00016C6.85414 9.00016 3.45377 12.2684 2.30251 13.6899C2.0746 13.9725 1.95349 14.3659 1.95349 14.8553V17.4195C1.95349 18.4382 2.97191 19.2556 4.06195 18.9289L6.6666 18.1475C7.36726 17.9369 7.81395 17.3115 7.81395 16.6381V15.8167H8.7907C7.81395 15.8167 7.81395 15.814 7.81395 15.814V15.766C7.81726 15.6902 7.82684 15.6148 7.8426 15.5407C7.86605 15.4167 7.90772 15.2646 7.98326 15.0966C8.13563 14.7539 8.40781 14.3766 8.86493 14.0326C9.75833 13.3618 11.3055 12.8618 14 12.8618C16.6958 12.8618 18.2417 13.3618 19.1351 14.0326C19.5922 14.3752 19.8644 14.7526 20.0167 15.0966C20.1024 15.2887 20.1578 15.4935 20.1808 15.7034L20.1847 15.7674V15.794L20.186 15.8047V15.814C20.186 15.814 20.186 15.8167 19.2093 15.8167H20.186V16.3341C20.186 17.0888 20.7473 17.7715 21.5665 17.8942L24.1712 18.2849C25.1935 18.4396 26.0465 17.6555 26.0465 16.7248V13.8912C26.0465 13.3045 25.8681 12.8431 25.5516 12.5538C24.2441 11.3563 20.8164 9.00016 14 9.00016ZM18.2326 15.9127V16.3341C18.2326 18.1302 19.5531 19.6143 21.2826 19.8743L23.8873 20.265C26.0153 20.5851 28 18.9516 28 16.7248V13.8912C28 12.9138 27.7005 11.835 26.854 11.063C25.1922 9.54287 21.3047 7 14 7C6.17302 7 2.25172 10.619 0.798326 12.4138C0.203163 13.1498 0 14.0406 0 14.8553V17.4195C0 19.8637 2.35721 21.5251 4.61023 20.8478L7.21488 20.0664C8.71256 19.6183 9.76744 18.2382 9.76744 16.6394V15.9127C9.83089 15.8058 9.91675 15.7147 10.0188 15.646C10.4277 15.3393 11.4852 14.862 14 14.862C16.5135 14.862 17.5723 15.3393 17.9812 15.646C18.1505 15.7727 18.213 15.8727 18.2326 15.9127Z" fill="white"/>
</svg>
