<svg width="16" height="16" viewBox="0 0 16 16" fill="none" xmlns="http://www.w3.org/2000/svg">
<g clip-path="url(#clip0_1150_4012)">
<path d="M15.5312 15.9999H0.468796C0.209922 15.9999 4.83528e-05 15.7901 4.83528e-05 15.5312V14.5937C4.83528e-05 14.3348 0.209922 14.1249 0.468796 14.1249H15.5312C15.7901 14.1249 16 14.3348 16 14.5937V15.5312C16 15.7901 15.7901 15.9999 15.5312 15.9999ZM10.0312 12.7187C10.0312 12.4598 9.82137 12.25 9.56249 12.25H6.43751C6.17864 12.25 5.96876 12.4598 5.96876 12.7187V13.1874H10.0312V12.7187ZM15.0312 12.7187C15.0312 12.4598 14.8213 12.25 14.5625 12.25H11.4375C11.1786 12.25 10.9687 12.4598 10.9687 12.7187V13.1874H15.0312V12.7187ZM5.03127 12.7187C5.03127 12.4598 4.8214 12.25 4.56252 12.25H1.43754C1.17867 12.25 0.968793 12.4598 0.968793 12.7187V13.1874H5.03127V12.7187ZM5.96876 6.09374C5.96876 6.35261 6.17864 6.56249 6.43751 6.56249H9.56249C9.82137 6.56249 10.0312 6.35261 10.0312 6.09374V5.62499H5.96876V6.09374ZM10.9687 6.09374C10.9687 6.35261 11.1786 6.56249 11.4375 6.56249H14.5625C14.8213 6.56249 15.0312 6.35261 15.0312 6.09374V5.62499H10.9687V6.09374ZM0.968793 6.09374C0.968793 6.35261 1.17867 6.56249 1.43754 6.56249H4.56252C4.8214 6.56249 5.03127 6.35261 5.03127 6.09374V5.62499H0.968793V6.09374ZM11.9062 7.49998H14.0937V11.3125H11.9062V7.49998ZM6.90626 7.49998H9.09375V11.3125H6.90626V7.49998ZM1.90629 7.49998H4.09377V11.3125H1.90629V7.49998ZM15.7401 3.79913L8.20894 0.0491481C8.14403 0.0168238 8.07251 0 8 0C7.92749 0 7.85597 0.0168238 7.79107 0.0491481L0.259859 3.79913C0.0651417 3.89609 -0.0372952 4.11428 0.0124858 4.32606C0.0622667 4.53784 0.251234 4.6875 0.468796 4.6875H15.5312C15.6368 4.68744 15.7394 4.65172 15.8222 4.58611C15.9049 4.5205 15.9631 4.42885 15.9873 4.32602C16.0115 4.22319 16.0003 4.1152 15.9554 4.01957C15.9105 3.92394 15.8347 3.84626 15.7401 3.79913ZM8 2.96876C7.74113 2.96876 7.53125 2.75888 7.53125 2.50001C7.53125 2.24114 7.74113 2.03126 8 2.03126C8.25888 2.03126 8.46875 2.24114 8.46875 2.50001C8.46875 2.75888 8.25891 2.96876 8 2.96876Z" fill="#AAB0BB"/>
</g>
<defs>
<clipPath id="clip0_1150_4012">
<rect width="16" height="16" fill="white"/>
</clipPath>
</defs>
</svg>
