<svg width="70" height="36" viewBox="0 0 70 36" fill="none" xmlns="http://www.w3.org/2000/svg">
<rect x="0.5" y="0.5" width="69" height="35" rx="1.5" stroke="#96A1B5"/>
<rect x="3" y="3" width="14.5" height="9.35354" rx="0.969697" fill="#4A5469"/>
<rect x="3" y="13.3232" width="14.5" height="9.35353" rx="0.969697" fill="#4A5469"/>
<rect x="3" y="23.6465" width="14.5" height="9.35353" rx="0.969697" fill="#4A5469"/>
<rect x="19.5" y="3" width="14.5" height="9.35354" rx="0.969697" fill="#4A5469"/>
<rect x="19.5" y="13.3232" width="14.5" height="9.35353" rx="0.969697" fill="#4A5469"/>
<rect x="19.5" y="23.6465" width="14.5" height="9.35353" rx="0.969697" fill="#4A5469"/>
<rect x="36" y="3" width="14.5" height="9.35354" rx="0.969697" fill="#4A5469"/>
<rect x="36" y="13.3232" width="14.5" height="9.35353" rx="0.969697" fill="#4A5469"/>
<rect x="36" y="23.6465" width="14.5" height="9.35353" rx="0.969697" fill="#4A5469"/>
<rect x="52.5" y="3" width="14.5" height="9.35354" rx="0.969697" fill="#4A5469"/>
<rect x="52.5" y="13.3232" width="14.5" height="9.35353" rx="0.969697" fill="#4A5469"/>
<rect x="52.5" y="23.6465" width="14.5" height="9.35353" rx="0.969697" fill="#4A5469"/>
</svg>
