<svg width="40" height="40" viewBox="0 0 40 40" fill="none" xmlns="http://www.w3.org/2000/svg">
<path d="M36.7442 2H3.25581C2.39262 2.00098 1.56506 2.34167 0.954694 2.94735C0.344323 3.55302 0.000984819 4.37422 0 5.23077V34.7692C0.000984819 35.6258 0.344323 36.447 0.954694 37.0527C1.56506 37.6583 2.39262 37.999 3.25581 38H36.7442C37.6074 37.999 38.4349 37.6583 39.0453 37.0527C39.6557 36.447 39.999 35.6258 40 34.7692V5.23077C39.999 4.37422 39.6557 3.55302 39.0453 2.94735C38.4349 2.34167 37.6074 2.00098 36.7442 2ZM8.83721 29.2308C8.46924 29.2308 8.10954 29.1225 7.80359 28.9196C7.49764 28.7168 7.25918 28.4284 7.11836 28.0911C6.97755 27.7538 6.94071 27.3826 7.01249 27.0244C7.08428 26.6663 7.26147 26.3374 7.52166 26.0792C7.78185 25.821 8.11336 25.6452 8.47425 25.5739C8.83515 25.5027 9.20922 25.5393 9.54918 25.679C9.88913 25.8187 10.1797 26.0553 10.3841 26.3589C10.5886 26.6625 10.6977 27.0195 10.6977 27.3846C10.6977 27.8742 10.5017 28.3438 10.1528 28.69C9.80385 29.0363 9.33064 29.2308 8.83721 29.2308ZM8.83721 21.8462C8.46924 21.8462 8.10954 21.7379 7.80359 21.535C7.49764 21.3322 7.25918 21.0438 7.11836 20.7065C6.97755 20.3692 6.94071 19.998 7.01249 19.6398C7.08428 19.2817 7.26147 18.9528 7.52166 18.6946C7.78185 18.4364 8.11336 18.2606 8.47425 18.1893C8.83515 18.1181 9.20922 18.1546 9.54918 18.2944C9.88913 18.4341 10.1797 18.6707 10.3841 18.9743C10.5886 19.2779 10.6977 19.6349 10.6977 20C10.6977 20.4896 10.5017 20.9592 10.1528 21.3054C9.80385 21.6516 9.33064 21.8462 8.83721 21.8462ZM8.83721 14.4615C8.46924 14.4615 8.10954 14.3533 7.80359 14.1504C7.49764 13.9475 7.25918 13.6592 7.11836 13.3219C6.97755 12.9845 6.94071 12.6133 7.01249 12.2552C7.08428 11.8971 7.26147 11.5681 7.52166 11.31C7.78185 11.0518 8.11336 10.8759 8.47425 10.8047C8.83515 10.7335 9.20922 10.77 9.54918 10.9098C9.88913 11.0495 10.1797 11.2861 10.3841 11.5897C10.5886 11.8933 10.6977 12.2502 10.6977 12.6154C10.6977 13.105 10.5017 13.5746 10.1528 13.9208C9.80385 14.267 9.33064 14.4615 8.83721 14.4615ZM31.1628 28.7692H14.4186C14.0485 28.7692 13.6936 28.6234 13.4319 28.3637C13.1703 28.104 13.0233 27.7518 13.0233 27.3846C13.0233 27.0174 13.1703 26.6652 13.4319 26.4055C13.6936 26.1459 14.0485 26 14.4186 26H31.1628C31.5329 26 31.8878 26.1459 32.1495 26.4055C32.4111 26.6652 32.5581 27.0174 32.5581 27.3846C32.5581 27.7518 32.4111 28.104 32.1495 28.3637C31.8878 28.6234 31.5329 28.7692 31.1628 28.7692ZM31.1628 21.3846H14.4186C14.0485 21.3846 13.6936 21.2387 13.4319 20.9791C13.1703 20.7194 13.0233 20.3672 13.0233 20C13.0233 19.6328 13.1703 19.2806 13.4319 19.0209C13.6936 18.7613 14.0485 18.6154 14.4186 18.6154H31.1628C31.5329 18.6154 31.8878 18.7613 32.1495 19.0209C32.4111 19.2806 32.5581 19.6328 32.5581 20C32.5581 20.3672 32.4111 20.7194 32.1495 20.9791C31.8878 21.2387 31.5329 21.3846 31.1628 21.3846ZM31.1628 14H14.4186C14.0485 14 13.6936 13.8541 13.4319 13.5945C13.1703 13.3348 13.0233 12.9826 13.0233 12.6154C13.0233 12.2482 13.1703 11.896 13.4319 11.6363C13.6936 11.3766 14.0485 11.2308 14.4186 11.2308H31.1628C31.5329 11.2308 31.8878 11.3766 32.1495 11.6363C32.4111 11.896 32.5581 12.2482 32.5581 12.6154C32.5581 12.9826 32.4111 13.3348 32.1495 13.5945C31.8878 13.8541 31.5329 14 31.1628 14Z" fill="white"/>
</svg>
