<svg width="18" height="18" viewBox="0 0 18 18" fill="none" xmlns="http://www.w3.org/2000/svg">
<mask id="mask0_1095_4577" style="mask-type:alpha" maskUnits="userSpaceOnUse" x="0" y="0" width="18" height="18">
<path d="M5.625 3.375C5.625 2.47989 5.98058 1.62145 6.61351 0.988515C7.24645 0.355579 8.10489 0 9 0C9.89511 0 10.7536 0.355579 11.3865 0.988515C12.0194 1.62145 12.375 2.47989 12.375 3.375V9C12.375 9.89511 12.0194 10.7536 11.3865 11.3865C10.7536 12.0194 9.89511 12.375 9 12.375C8.10489 12.375 7.24645 12.0194 6.61351 11.3865C5.98058 10.7536 5.625 9.89511 5.625 9V3.375Z" fill="#9CA3AF"/>
<path d="M3.9375 7.3125C4.08668 7.3125 4.22976 7.37176 4.33525 7.47725C4.44074 7.58274 4.5 7.72582 4.5 7.875V9C4.5 10.1935 4.97411 11.3381 5.81802 12.182C6.66193 13.0259 7.80653 13.5 9 13.5C10.1935 13.5 11.3381 13.0259 12.182 12.182C13.0259 11.3381 13.5 10.1935 13.5 9V7.875C13.5 7.72582 13.5593 7.58274 13.6648 7.47725C13.7702 7.37176 13.9133 7.3125 14.0625 7.3125C14.2117 7.3125 14.3548 7.37176 14.4602 7.47725C14.5657 7.58274 14.625 7.72582 14.625 7.875V9C14.625 10.3945 14.1071 11.7392 13.1716 12.7734C12.2362 13.8076 10.95 14.4574 9.5625 14.5969V16.875H12.9375C13.0867 16.875 13.2298 16.9343 13.3352 17.0398C13.4407 17.1452 13.5 17.2883 13.5 17.4375C13.5 17.5867 13.4407 17.7298 13.3352 17.8352C13.2298 17.9407 13.0867 18 12.9375 18H5.0625C4.91332 18 4.77024 17.9407 4.66475 17.8352C4.55926 17.7298 4.5 17.5867 4.5 17.4375C4.5 17.2883 4.55926 17.1452 4.66475 17.0398C4.77024 16.9343 4.91332 16.875 5.0625 16.875H8.4375V14.5969C7.05002 14.4574 5.7638 13.8076 4.82836 12.7734C3.89293 11.7392 3.37498 10.3945 3.375 9V7.875C3.375 7.72582 3.43426 7.58274 3.53975 7.47725C3.64524 7.37176 3.78832 7.3125 3.9375 7.3125Z" fill="#9CA3AF"/>
</mask>
<g mask="url(#mask0_1095_4577)">
<rect width="18" height="18" fill="#9CA3AF"/>
<rect y="7.2002" width="18" height="10.8" fill="#2D8CFF"/>
</g>
</svg>
