<svg width="24" height="24" viewBox="0 0 24 24" fill="none" xmlns="http://www.w3.org/2000/svg">
<path d="M10.29 21.961H9.39C6.142 21.961 4.517 21.961 3.508 20.936C2.499 19.911 2.5 18.261 2.5 14.961V9.961C2.5 6.661 2.5 5.011 3.51 3.987C4.517 2.96 6.142 2.96 9.39 2.96H12.343C15.592 2.96 17.49 3.016 18.499 4.04C19.509 5.066 19.499 6.66 19.499 9.96V11.147M15.945 2V4M10.945 2V4M5.945 2V4M7 15H11M7 10H15" stroke="#AAB0BB" stroke-width="1.5" stroke-linecap="round" stroke-linejoin="round"/>
<path opacity="0.93" d="M20.76 14.8789C19.854 13.8639 19.311 13.9249 18.708 14.1059C18.285 14.1659 16.837 15.8559 16.233 16.3959C15.242 17.3739 14.246 18.3819 14.181 18.5139C13.993 18.8189 13.819 19.3589 13.734 19.9629C13.577 20.8689 13.351 21.8879 13.637 21.9759C13.923 22.0639 14.724 21.8959 15.629 21.7629C16.233 21.6529 16.655 21.5329 16.957 21.3519C17.38 21.0979 18.164 20.2049 19.517 18.8759C20.364 17.9829 21.182 17.3659 21.424 16.7629C21.665 15.8569 21.304 15.3739 20.76 14.8789Z" stroke="#AAB0BB" stroke-width="1.5" stroke-linecap="round" stroke-linejoin="round"/>
</svg>
