<svg width="20" height="20" viewBox="0 0 20 20" fill="none" xmlns="http://www.w3.org/2000/svg">
<path d="M10.625 1.25C9.8979 1.25 9.26788 1.67754 8.95752 2.28923C8.70509 2.16176 8.42474 2.08333 8.125 2.08333C7.09688 2.08333 6.25 2.93021 6.25 3.95833V11.6593C5.63847 11.3109 4.87854 10.8711 4.33919 10.6364C4.03539 10.5042 3.69815 10.4167 3.33984 10.4167C2.48498 10.4167 1.87466 10.8599 1.5861 11.2931C1.29754 11.7264 1.25326 12.1712 1.25326 12.1712C1.2428 12.2696 1.25586 12.3691 1.29137 12.4615C1.32689 12.5539 1.38383 12.6366 1.45752 12.7026C1.45752 12.7026 4.93352 15.8322 5.91309 16.8685C6.73587 17.7387 7.86026 18.3583 9.13412 18.3333H12.6815C15.3235 18.3573 17.4761 16.2044 17.5 13.5685C17.5 13.5666 17.5 13.5647 17.5 13.5628V5.625C17.5 4.59687 16.6531 3.75 15.625 3.75C15.402 3.75 15.1902 3.79592 14.991 3.86882C14.9427 2.88232 14.1225 2.08333 13.125 2.08333C12.8209 2.08333 12.5444 2.17457 12.2892 2.3055C11.9808 1.68832 11.3561 1.25 10.625 1.25ZM10.625 2.5C10.9777 2.5 11.25 2.77229 11.25 3.125V3.95833V9.375C11.2488 9.45782 11.2641 9.54005 11.295 9.6169C11.3259 9.69376 11.3717 9.76371 11.4299 9.82269C11.4881 9.88167 11.5573 9.92851 11.6338 9.96047C11.7102 9.99244 11.7922 10.0089 11.875 10.0089C11.9578 10.0089 12.0398 9.99244 12.1162 9.96047C12.1927 9.92851 12.2619 9.88167 12.3201 9.82269C12.3783 9.76371 12.4241 9.69376 12.455 9.6169C12.4859 9.54005 12.5012 9.45782 12.5 9.375V3.95833C12.5 3.60563 12.7723 3.33333 13.125 3.33333C13.4777 3.33333 13.75 3.60563 13.75 3.95833V5.625V9.79167C13.7488 9.87449 13.7641 9.95671 13.795 10.0336C13.8259 10.1104 13.8717 10.1804 13.9299 10.2394C13.9881 10.2983 14.0573 10.3452 14.1338 10.3771C14.2102 10.4091 14.2922 10.4256 14.375 10.4256C14.4578 10.4256 14.5398 10.4091 14.6162 10.3771C14.6927 10.3452 14.7619 10.2983 14.8201 10.2394C14.8783 10.1804 14.9241 10.1104 14.955 10.0336C14.9859 9.95671 15.0012 9.87449 15 9.79167V5.625C15 5.27229 15.2723 5 15.625 5C15.9777 5 16.25 5.27229 16.25 5.625V13.5571C16.2322 15.5237 14.6534 17.1011 12.6929 17.0833C12.691 17.0833 12.6891 17.0833 12.6872 17.0833H9.12191C9.11784 17.0833 9.11377 17.0833 9.1097 17.0833C8.25544 17.1001 7.4609 16.6853 6.8221 16.0099C5.77591 14.9032 3.00008 12.4191 2.59684 12.0573C2.61325 12.023 2.60144 12.0228 2.62614 11.9857C2.73581 11.821 2.85763 11.6667 3.33984 11.6667C3.49321 11.6667 3.66163 11.7053 3.84033 11.783C4.3101 11.9874 5.31056 12.5531 5.94401 12.9134C6.61289 13.2951 7.5 12.7754 7.5 12.0077V3.95833C7.5 3.60563 7.77229 3.33333 8.125 3.33333C8.47771 3.33333 8.75 3.60563 8.75 3.95833V9.375C8.74883 9.45782 8.76413 9.54005 8.79501 9.6169C8.8259 9.69376 8.87175 9.76371 8.9299 9.82269C8.98805 9.88167 9.05735 9.92851 9.13376 9.96047C9.21017 9.99244 9.29217 10.0089 9.375 10.0089C9.45783 10.0089 9.53983 9.99244 9.61624 9.96047C9.69265 9.92851 9.76195 9.88167 9.8201 9.82269C9.87825 9.76371 9.9241 9.69376 9.95499 9.6169C9.98587 9.54005 10.0012 9.45782 10 9.375V3.95833V3.125C10 2.77229 10.2723 2.5 10.625 2.5Z" fill="#9CA3AF"/>
</svg>
