<svg width="24" height="24" viewBox="0 0 24 24" fill="none" xmlns="http://www.w3.org/2000/svg">
<path d="M12 19.875C9.91142 19.875 7.90838 19.0453 6.43153 17.5685C4.95468 16.0916 4.125 14.0886 4.125 12C4.125 9.91142 4.95468 7.90838 6.43153 6.43153C7.90838 4.95468 9.91142 4.125 12 4.125C14.0886 4.125 16.0916 4.95468 17.5685 6.43153C19.0453 7.90838 19.875 9.91142 19.875 12C19.875 14.0886 19.0453 16.0916 17.5685 17.5685C16.0916 19.0453 14.0886 19.875 12 19.875ZM12 21C14.3869 21 16.6761 20.0518 18.364 18.364C20.0518 16.6761 21 14.3869 21 12C21 9.61305 20.0518 7.32387 18.364 5.63604C16.6761 3.94821 14.3869 3 12 3C9.61305 3 7.32387 3.94821 5.63604 5.63604C3.94821 7.32387 3 9.61305 3 12C3 14.3869 3.94821 16.6761 5.63604 18.364C7.32387 20.0518 9.61305 21 12 21Z" fill="#D1D5DB"/>
<path d="M15 12C15 12.7956 14.6839 13.5587 14.1213 14.1213C13.5587 14.6839 12.7956 15 12 15C11.2044 15 10.4413 14.6839 9.87868 14.1213C9.31607 13.5587 9 12.7956 9 12C9 11.2044 9.31607 10.4413 9.87868 9.87868C10.4413 9.31607 11.2044 9 12 9C12.7956 9 13.5587 9.31607 14.1213 9.87868C14.6839 10.4413 15 11.2044 15 12Z" fill="#D1D5DB"/>
</svg>
