<svg width="20" height="20" viewBox="0 0 20 20" fill="none" xmlns="http://www.w3.org/2000/svg">
<path d="M10.0001 0.833328C7.93643 0.833328 6.25006 2.5197 6.25006 4.58333V10.8333C6.25006 12.897 7.93643 14.5833 10.0001 14.5833C12.0637 14.5833 13.7501 12.897 13.7501 10.8333V4.58333C13.7501 2.5197 12.0637 0.833328 10.0001 0.833328ZM10.0001 2.08333C11.3881 2.08333 12.5001 3.19529 12.5001 4.58333V10.8333C12.5001 12.2214 11.3881 13.3333 10.0001 13.3333C8.61203 13.3333 7.50006 12.2214 7.50006 10.8333V4.58333C7.50006 3.19529 8.61203 2.08333 10.0001 2.08333ZM4.3653 8.74104C4.19968 8.74363 4.04186 8.81185 3.9265 8.93072C3.81115 9.04958 3.74769 9.20937 3.75006 9.375V10.8333C3.75006 14.0669 6.22258 16.7367 9.37506 17.0516V18.9583C9.37389 19.0411 9.38919 19.1234 9.42008 19.2002C9.45096 19.2771 9.49681 19.347 9.55496 19.406C9.61312 19.465 9.68241 19.5118 9.75882 19.5438C9.83523 19.5758 9.91724 19.5922 10.0001 19.5922C10.0829 19.5922 10.1649 19.5758 10.2413 19.5438C10.3177 19.5118 10.387 19.465 10.4452 19.406C10.5033 19.347 10.5492 19.2771 10.5801 19.2002C10.6109 19.1234 10.6262 19.0411 10.6251 18.9583V17.0516C13.7775 16.7367 16.2501 14.0669 16.2501 10.8333V9.375C16.2512 9.29218 16.2359 9.20995 16.205 9.13309C16.1742 9.05624 16.1283 8.98629 16.0702 8.92731C16.012 8.86833 15.9427 8.82149 15.8663 8.78952C15.7899 8.75756 15.7079 8.74109 15.6251 8.74109C15.5422 8.74109 15.4602 8.75756 15.3838 8.78952C15.3074 8.82149 15.2381 8.86833 15.18 8.92731C15.1218 8.98629 15.076 9.05624 15.0451 9.13309C15.0142 9.20995 14.9989 9.29218 15.0001 9.375V10.8333C15.0001 13.5772 12.8083 15.7895 10.0741 15.8293C10.0463 15.8258 10.0183 15.8241 9.9903 15.8244C9.96744 15.8248 9.94462 15.8264 9.92194 15.8293C7.1897 15.7873 5.00006 13.5759 5.00006 10.8333V9.375C5.00126 9.29134 4.98566 9.2083 4.95417 9.13079C4.92269 9.05328 4.87596 8.98288 4.81677 8.92376C4.75757 8.86464 4.68711 8.81801 4.60956 8.78662C4.53201 8.75523 4.44895 8.73974 4.3653 8.74104V8.74104Z" fill="#9CA3AF"/>
</svg>
