<svg width="20" height="20" viewBox="0 0 20 20" fill="none" xmlns="http://www.w3.org/2000/svg">
<path d="M8.52687 5.08918C8.52687 4.69846 8.68208 4.32374 8.95836 4.04746C9.23464 3.77118 9.60936 3.61597 10.0001 3.61597C10.3908 3.61597 10.7655 3.77118 11.0418 4.04746C11.3181 4.32374 11.4733 4.69846 11.4733 5.08918C11.4733 5.4799 11.3181 5.85462 11.0418 6.1309C10.7655 6.40718 10.3908 6.5624 10.0001 6.5624C9.60936 6.5624 9.23464 6.40718 8.95836 6.1309C8.68208 5.85462 8.52687 5.4799 8.52687 5.08918ZM8.52687 9.99989C8.52687 9.60917 8.68208 9.23446 8.95836 8.95818C9.23464 8.68189 9.60936 8.52668 10.0001 8.52668C10.3908 8.52668 10.7655 8.68189 11.0418 8.95818C11.3181 9.23446 11.4733 9.60917 11.4733 9.9999C11.4733 10.3906 11.3181 10.7653 11.0418 11.0416C10.7655 11.3179 10.3908 11.4731 10.0001 11.4731C9.60936 11.4731 9.23464 11.3179 8.95836 11.0416C8.68208 10.7653 8.52687 10.3906 8.52687 9.99989ZM8.52687 14.9106C8.52687 14.5199 8.68208 14.1452 8.95836 13.8689C9.23464 13.5926 9.60936 13.4374 10.0001 13.4374C10.3908 13.4374 10.7655 13.5926 11.0418 13.8689C11.3181 14.1452 11.4733 14.5199 11.4733 14.9106C11.4733 15.3013 11.3181 15.676 11.0418 15.9523C10.7655 16.2286 10.3908 16.3838 10.0001 16.3838C9.60936 16.3838 9.23464 16.2286 8.95836 15.9523C8.68208 15.676 8.52687 15.3013 8.52687 14.9106Z" fill="white"/>
</svg>
