<svg width="193" height="41" viewBox="0 0 193 41" fill="none" xmlns="http://www.w3.org/2000/svg">
<path d="M0 6.33333C0 3.11167 2.61167 0.5 5.83333 0.5H33.5835V20.5H16.4867C16.166 20.5 15.8593 20.6314 15.6381 20.8636C15.2013 21.3221 15.2077 22.0446 15.6525 22.4953L33.4221 40.5H5.83333C2.61167 40.5 0 37.8883 0 34.6667V6.33333Z" fill="#2F6EFF"/>
<path d="M33.583 20.501L58.8493 5.43101C60.238 4.60273 61.9998 5.60332 61.9998 7.22025L61.9998 33.7818C61.9998 35.3988 60.238 36.3993 58.8493 35.5711L33.583 20.501Z" fill="#2F6EFF"/>
<path d="M86.2148 34.5L75.9805 5.86719H82.25L89.4961 27.0586L96.5078 5.86719H102.641L92.3867 34.5H86.2148ZM104.341 13.7578H109.399V16.5898C111.209 14.3893 113.364 13.2891 115.864 13.2891C117.192 13.2891 118.345 13.5625 119.321 14.1094C120.298 14.6562 121.098 15.4831 121.723 16.5898C122.635 15.4831 123.618 14.6562 124.673 14.1094C125.727 13.5625 126.854 13.2891 128.052 13.2891C129.575 13.2891 130.864 13.6016 131.919 14.2266C132.973 14.8385 133.761 15.7435 134.282 16.9414C134.66 17.8268 134.848 19.2591 134.848 21.2383V34.5H129.36V22.6445C129.36 20.5872 129.171 19.2591 128.794 18.6602C128.286 17.8789 127.505 17.4883 126.45 17.4883C125.682 17.4883 124.959 17.7227 124.282 18.1914C123.605 18.6602 123.117 19.3503 122.817 20.2617C122.518 21.1602 122.368 22.5859 122.368 24.5391V34.5H116.88V23.1328C116.88 21.1146 116.782 19.8125 116.587 19.2266C116.391 18.6406 116.085 18.2044 115.669 17.918C115.265 17.6315 114.712 17.4883 114.009 17.4883C113.162 17.4883 112.401 17.7161 111.723 18.1719C111.046 18.6276 110.558 19.2852 110.259 20.1445C109.972 21.0039 109.829 22.4297 109.829 24.4219V34.5H104.341V13.7578ZM151.548 27.8984L157.017 28.8164C156.314 30.8216 155.201 32.3516 153.677 33.4062C152.167 34.4479 150.272 34.9688 147.994 34.9688C144.387 34.9688 141.718 33.7904 139.986 31.4336C138.619 29.5456 137.935 27.1628 137.935 24.2852C137.935 20.8477 138.834 18.1589 140.63 16.2188C142.427 14.2656 144.699 13.2891 147.447 13.2891C150.533 13.2891 152.968 14.3112 154.752 16.3555C156.535 18.3867 157.388 21.5052 157.31 25.7109H143.56C143.599 27.3385 144.042 28.6081 144.888 29.5195C145.735 30.418 146.789 30.8672 148.052 30.8672C148.912 30.8672 149.634 30.6328 150.22 30.1641C150.806 29.6953 151.249 28.9401 151.548 27.8984ZM151.861 22.3516C151.822 20.763 151.412 19.5586 150.63 18.7383C149.849 17.9049 148.899 17.4883 147.779 17.4883C146.581 17.4883 145.591 17.9245 144.81 18.7969C144.029 19.6693 143.645 20.8542 143.658 22.3516H151.861ZM173.014 27.8984L178.483 28.8164C177.78 30.8216 176.666 32.3516 175.143 33.4062C173.633 34.4479 171.738 34.9688 169.459 34.9688C165.853 34.9688 163.183 33.7904 161.452 31.4336C160.084 29.5456 159.401 27.1628 159.401 24.2852C159.401 20.8477 160.299 18.1589 162.096 16.2188C163.893 14.2656 166.165 13.2891 168.912 13.2891C171.998 13.2891 174.433 14.3112 176.217 16.3555C178.001 18.3867 178.854 21.5052 178.776 25.7109H165.026C165.065 27.3385 165.508 28.6081 166.354 29.5195C167.2 30.418 168.255 30.8672 169.518 30.8672C170.377 30.8672 171.1 30.6328 171.686 30.1641C172.272 29.6953 172.715 28.9401 173.014 27.8984ZM173.327 22.3516C173.287 20.763 172.877 19.5586 172.096 18.7383C171.315 17.9049 170.364 17.4883 169.245 17.4883C168.047 17.4883 167.057 17.9245 166.276 18.7969C165.495 19.6693 165.11 20.8542 165.123 22.3516H173.327ZM191.98 13.7578V18.1328H188.23V26.4922C188.23 28.1849 188.262 29.1745 188.327 29.4609C188.405 29.7344 188.568 29.9622 188.816 30.1445C189.076 30.3268 189.389 30.418 189.753 30.418C190.261 30.418 190.997 30.2422 191.96 29.8906L192.429 34.1484C191.153 34.6953 189.708 34.9688 188.093 34.9688C187.103 34.9688 186.211 34.806 185.417 34.4805C184.623 34.1419 184.037 33.7122 183.659 33.1914C183.295 32.6576 183.041 31.9414 182.898 31.043C182.78 30.4049 182.722 29.1159 182.722 27.1758V18.1328H180.202V13.7578H182.722V9.63672L188.23 6.43359V13.7578H191.98Z" fill="#001D5F"/>
</svg>
