<svg width="40" height="40" viewBox="0 0 40 40" fill="none" xmlns="http://www.w3.org/2000/svg">
<g clip-path="url(#clip0_1150_3966)">
<path d="M39.4418 11.8602C39.269 11.7291 39.0678 11.6406 38.8545 11.6019C38.6412 11.5631 38.4217 11.5751 38.2139 11.6369L28.8372 14.316L26.0465 15.116L25.1907 15.3578C24.9008 15.4424 24.6462 15.6186 24.4651 15.8602C24.284 16.1017 24.186 16.3955 24.186 16.6974V24.1392C24.186 24.4411 24.284 24.7349 24.4651 24.9764C24.6462 25.2179 24.9008 25.3942 25.1907 25.4787L26.0465 25.7206L28.8372 26.5206L38.2139 29.1996C38.3409 29.2364 38.4724 29.2552 38.6046 29.2555C38.9747 29.2555 39.3296 29.1085 39.5913 28.8468C39.8529 28.5851 39.9999 28.2302 39.9999 27.8601V12.9764C40.0016 12.7595 39.9518 12.5453 39.8548 12.3513C39.7578 12.1573 39.6163 11.989 39.4418 11.8602Z" fill="white"/>
<path d="M23.7209 6H5.11626C4.44425 5.99951 3.77873 6.13151 3.15778 6.38846C2.53682 6.6454 1.97262 7.02224 1.49743 7.49743C1.02224 7.97261 0.6454 8.53682 0.388457 9.15778C0.131514 9.77873 -0.000487917 10.4442 1.35516e-06 11.1163V29.7209C-0.000487917 30.3929 0.131514 31.0584 0.388457 31.6793C0.6454 32.3003 1.02224 32.8645 1.49743 33.3397C1.97262 33.8149 2.53682 34.1917 3.15778 34.4487C3.77873 34.7056 4.44425 34.8376 5.11626 34.8371H23.7209C24.3929 34.8376 25.0584 34.7056 25.6793 34.4487C26.3003 34.1917 26.8645 33.8149 27.3397 33.3397C27.8149 32.8645 28.1917 32.3003 28.4487 31.6793C28.7056 31.0584 28.8376 30.3929 28.8371 29.7209V11.1163C28.8376 10.4442 28.7056 9.77873 28.4487 9.15778C28.1917 8.53682 27.8149 7.97261 27.3397 7.49743C26.8645 7.02224 26.3003 6.6454 25.6793 6.38846C25.0584 6.13151 24.3929 5.99951 23.7209 6ZM18.1395 21.8139H15.8139V24.1395C15.8139 24.5095 15.6669 24.8645 15.4052 25.1261C15.1435 25.3878 14.7886 25.5348 14.4186 25.5348C14.0485 25.5348 13.6936 25.3878 13.4319 25.1261C13.1702 24.8645 13.0232 24.5095 13.0232 24.1395V21.8139H10.6976C10.3276 21.8139 9.97266 21.6669 9.71098 21.4052C9.44931 21.1435 9.3023 20.7886 9.3023 20.4186C9.3023 20.0485 9.44931 19.6936 9.71098 19.4319C9.97266 19.1702 10.3276 19.0232 10.6976 19.0232H13.0232V16.6976C13.0232 16.3276 13.1702 15.9727 13.4319 15.711C13.6936 15.4493 14.0485 15.3023 14.4186 15.3023C14.7886 15.3023 15.1435 15.4493 15.4052 15.711C15.6669 15.9727 15.8139 16.3276 15.8139 16.6976V19.0232H18.1395C18.5095 19.0232 18.8645 19.1702 19.1261 19.4319C19.3878 19.6936 19.5348 20.0485 19.5348 20.4186C19.5348 20.7886 19.3878 21.1435 19.1261 21.4052C18.8645 21.6669 18.5095 21.8139 18.1395 21.8139Z" fill="white"/>
</g>
<defs>
<clipPath id="clip0_1150_3966">
<rect width="40" height="40" fill="white"/>
</clipPath>
</defs>
</svg>
