<svg width="8" height="8" viewBox="0 0 8 8" fill="none" xmlns="http://www.w3.org/2000/svg">
<path d="M5.75362 4.16606C5.75267 4.101 5.72639 4.03888 5.68038 3.99288L2.43038 0.742878C2.40734 0.718885 2.37975 0.699729 2.34922 0.686534C2.31868 0.673338 2.28583 0.666367 2.25257 0.666029C2.21931 0.66569 2.18631 0.671992 2.15552 0.684564C2.12473 0.697137 2.09675 0.715727 2.07323 0.739246C2.04971 0.762766 2.03112 0.790742 2.01855 0.821536C2.00598 0.85233 1.99967 0.885323 2.00001 0.918583C2.00035 0.951843 2.00732 0.984701 2.02052 1.01523C2.03371 1.04576 2.05287 1.07336 2.07686 1.09639L5.1501 4.16964L2.07686 7.24288C2.05287 7.26592 2.03371 7.29351 2.02052 7.32404C2.00732 7.35457 2.00035 7.38743 2.00001 7.42069C1.99968 7.45395 2.00598 7.48694 2.01855 7.51774C2.03112 7.54853 2.04971 7.57651 2.07323 7.60003C2.09675 7.62355 2.12473 7.64214 2.15552 7.65471C2.18631 7.66728 2.21931 7.67358 2.25257 7.67324C2.28583 7.67291 2.31868 7.66593 2.34922 7.65274C2.37975 7.63954 2.40734 7.62039 2.43038 7.5964L5.68038 4.34639C5.70402 4.32276 5.72269 4.29462 5.73527 4.26364C5.74785 4.23267 5.75409 4.19949 5.75362 4.16606Z" fill="#9CA3AF"/>
</svg>
