<svg width="21" height="20" viewBox="0 0 21 20" fill="none" xmlns="http://www.w3.org/2000/svg">
<g clip-path="url(#clip0_2034_5471)">
<path fill-rule="evenodd" clip-rule="evenodd" d="M14.2013 15.4564C14.5571 15.0761 14.7852 14.594 14.8537 14.0777L18.7412 15.8052C18.9315 15.89 19.14 15.9259 19.3477 15.9096C19.5554 15.8933 19.7557 15.8254 19.9304 15.712C20.1052 15.5986 20.2488 15.4433 20.3483 15.2603C20.4478 15.0773 20.4999 14.8723 20.5 14.6639V5.33644C20.4998 5.12829 20.4477 4.92348 20.3483 4.74059C20.2488 4.5577 20.1053 4.40254 19.9308 4.28918C19.7562 4.17581 19.5561 4.10784 19.3486 4.09143C19.141 4.07502 18.9327 4.11068 18.7425 4.19519L14.8537 5.92269C14.7743 5.32155 14.4791 4.76977 14.0231 4.3701C13.5671 3.97044 12.9814 3.75012 12.375 3.7502H5.84L6.7325 5.00019H12.375C12.7065 5.00019 13.0245 5.13189 13.2589 5.36631C13.4933 5.60073 13.625 5.91867 13.625 6.25019V13.7502C13.6252 13.9784 13.563 14.2023 13.445 14.3977L14.2013 15.4564ZM2.285 5.22519C2.11988 5.34034 1.98501 5.49366 1.89187 5.67212C1.79872 5.85058 1.75005 6.04889 1.75 6.25019V13.7502C1.75 14.0817 1.8817 14.3997 2.11612 14.6341C2.35054 14.8685 2.66848 15.0002 3 15.0002H9.2675L10.16 16.2502H3C2.33696 16.2502 1.70107 15.9868 1.23223 15.518C0.763392 15.0491 0.5 14.4132 0.5 13.7502V6.25019C0.5 5.40645 0.9175 4.66019 1.55875 4.20769L2.285 5.22519ZM19.25 14.6627L14.875 12.7189V7.28144L19.25 5.33644V14.6627ZM13.7413 19.1127L1.24125 1.6127L2.25875 0.887695L14.7587 18.3877L13.7413 19.1127Z" fill="#9CA3AF"/>
<path d="M1.75 1.25L14.25 18.75" stroke="#EF4444" stroke-width="1.5" stroke-linecap="round"/>
</g>
<defs>
<clipPath id="clip0_2034_5471">
<rect width="20" height="20" fill="white" transform="translate(0.5)"/>
</clipPath>
</defs>
</svg>
