<svg width="21" height="20" viewBox="0 0 21 20" fill="none" xmlns="http://www.w3.org/2000/svg">
<g clip-path="url(#clip0_2034_5464)">
<path fill-rule="evenodd" clip-rule="evenodd" d="M14.2013 15.4561C14.5571 15.0757 14.7852 14.5937 14.8537 14.0774L18.7412 15.8049C18.9315 15.8897 19.14 15.9256 19.3477 15.9093C19.5554 15.893 19.7557 15.8251 19.9304 15.7117C20.1052 15.5983 20.2488 15.443 20.3483 15.26C20.4478 15.0769 20.4999 14.8719 20.5 14.6636V5.33613C20.4998 5.12798 20.4477 4.92316 20.3483 4.74028C20.2488 4.55739 20.1053 4.40223 19.9308 4.28886C19.7562 4.1755 19.5561 4.10753 19.3486 4.09111C19.141 4.0747 18.9327 4.11037 18.7425 4.19488L14.8537 5.92238C14.7743 5.32124 14.4791 4.76946 14.0231 4.36979C13.5671 3.97012 12.9814 3.74981 12.375 3.74988H3C2.26386 3.72855 1.911 3.82491 1.33333 4.16655L3 4.99989L12.375 4.99988C12.7065 4.99988 13.0245 5.13158 13.2589 5.366C13.4933 5.60042 13.625 5.91836 13.625 6.24988V13.7499C13.6252 13.9781 13.563 14.202 13.445 14.3974L14.2013 15.4561ZM3 4.99989C2.16667 4.99989 1.98501 5.49335 1.89187 5.67181C1.79872 5.85026 1.75005 6.04858 1.75 6.24988V13.7499C1.75 14.0814 1.8817 14.3993 2.11612 14.6338C2.35054 14.8682 2.66848 14.9999 3 14.9999C3 14.9999 12.0737 14.9999 12.5369 14.9999C13 14.9999 13.445 14.3974 13.445 14.3974L14.2013 15.4561C13.8074 15.8763 13.4167 16.2499 13 16.2499C12.5833 16.2499 3 16.2499 3 16.2499C2.33696 16.2499 1.70107 15.9865 1.23223 15.5176C0.763392 15.0488 0.5 14.4129 0.5 13.7499V6.24988C0.5 5.40613 0.692083 4.61905 1.33333 4.16655L3 4.99989ZM19.25 14.6624L14.875 12.7186V7.28113L19.25 5.33613V14.6624Z" fill="#9CA3AF"/>
</g>
<defs>
<clipPath id="clip0_2034_5464">
<rect width="20" height="20" fill="white" transform="translate(0.5)"/>
</clipPath>
</defs>
</svg>
