<svg width="24" height="24" viewBox="0 0 24 24" fill="none" xmlns="http://www.w3.org/2000/svg">
<path fill-rule="evenodd" clip-rule="evenodd" d="M2 6C2 5.46957 2.21071 4.96086 2.58579 4.58579C2.96086 4.21071 3.46957 4 4 4H20C20.5304 4 21.0391 4.21071 21.4142 4.58579C21.7893 4.96086 22 5.46957 22 6V18C22 18.5304 21.7893 19.0391 21.4142 19.4142C21.0391 19.7893 20.5304 20 20 20H4C3.46957 20 2.96086 19.7893 2.58579 19.4142C2.21071 19.0391 2 18.5304 2 18V6ZM8.962 10.856C9.19323 10.7352 9.45227 10.6777 9.71288 10.6893C9.97349 10.7009 10.2264 10.7812 10.446 10.922C10.5564 10.9932 10.6798 11.0419 10.8091 11.0654C10.9384 11.0889 11.071 11.0867 11.1994 11.0589C11.3278 11.0312 11.4495 10.9784 11.5576 10.9036C11.6656 10.8288 11.7578 10.7334 11.829 10.623C11.9002 10.5126 11.9489 10.3892 11.9724 10.2599C11.9959 10.1306 11.9937 9.998 11.9659 9.86958C11.9382 9.74115 11.8854 9.61945 11.8106 9.51143C11.7358 9.40341 11.6404 9.31118 11.53 9.24C11.0129 8.90691 10.4167 8.71703 9.80221 8.68976C9.18774 8.66249 8.57703 8.7988 8.03247 9.08478C7.48792 9.37075 7.02902 9.79614 6.70266 10.3175C6.3763 10.8389 6.19416 11.4375 6.17485 12.0523C6.15555 12.6671 6.29977 13.2759 6.59277 13.8167C6.88578 14.3575 7.31709 14.8109 7.84263 15.1305C8.36817 15.4501 8.96912 15.6244 9.58409 15.6358C10.1991 15.6471 10.806 15.495 11.343 15.195C11.4576 15.1309 11.5585 15.0449 11.6399 14.9418C11.7213 14.8387 11.7816 14.7206 11.8174 14.5942C11.8531 14.4679 11.8636 14.3357 11.8483 14.2052C11.833 14.0748 11.7921 13.9486 11.728 13.834C11.6639 13.7194 11.5779 13.6185 11.4748 13.5371C11.3717 13.4557 11.2536 13.3954 11.1272 13.3596C11.0009 13.3239 10.8687 13.3134 10.7382 13.3287C10.6078 13.344 10.4816 13.3849 10.367 13.449C10.0231 13.6353 9.61936 13.6774 9.24448 13.566C8.86959 13.4546 8.55431 13.1989 8.368 12.855C8.18169 12.5111 8.1396 12.1074 8.25099 11.7325C8.36239 11.3576 8.61815 11.0423 8.962 10.856ZM15.148 10.856C15.3792 10.7352 15.6383 10.6777 15.8989 10.6893C16.1595 10.7009 16.4124 10.7812 16.632 10.922C16.7424 10.9932 16.8658 11.0419 16.9951 11.0654C17.1244 11.0889 17.257 11.0867 17.3854 11.0589C17.5138 11.0312 17.6355 10.9784 17.7436 10.9036C17.8516 10.8288 17.9438 10.7334 18.015 10.623C18.0862 10.5126 18.1349 10.3892 18.1584 10.2599C18.1819 10.1306 18.1797 9.998 18.1519 9.86958C18.1242 9.74115 18.0714 9.61945 17.9966 9.51143C17.9218 9.40341 17.8264 9.31118 17.716 9.24C17.1989 8.90691 16.6027 8.71703 15.9882 8.68976C15.3737 8.66249 14.763 8.7988 14.2185 9.08478C13.6739 9.37075 13.215 9.79614 12.8887 10.3175C12.5623 10.8389 12.3802 11.4375 12.3609 12.0523C12.3415 12.6671 12.4858 13.2759 12.7788 13.8167C13.0718 14.3575 13.5031 14.8109 14.0286 15.1305C14.5542 15.4501 15.1551 15.6244 15.7701 15.6358C16.3851 15.6471 16.992 15.495 17.529 15.195C17.6436 15.1309 17.7445 15.0449 17.8259 14.9418C17.9073 14.8387 17.9676 14.7206 18.0034 14.5942C18.0391 14.4679 18.0496 14.3357 18.0343 14.2052C18.019 14.0748 17.9781 13.9486 17.914 13.834C17.8499 13.7194 17.7639 13.6185 17.6608 13.5371C17.5577 13.4557 17.4396 13.3954 17.3132 13.3596C17.1869 13.3239 17.0547 13.3134 16.9242 13.3287C16.7938 13.344 16.6676 13.3849 16.553 13.449C16.2091 13.6353 15.8054 13.6774 15.4305 13.566C15.0556 13.4546 14.7403 13.1989 14.554 12.855C14.3677 12.5111 14.3256 12.1074 14.437 11.7325C14.5484 11.3576 14.8041 11.0423 15.148 10.856Z" fill="white"/>
</svg>
