<svg width="22" height="22" viewBox="0 0 22 22" fill="none" xmlns="http://www.w3.org/2000/svg">
<g clip-path="url(#clip0_468_966)">
<path d="M16.0602 5.5724C15.9324 5.57542 15.811 5.62887 15.7225 5.72109L11.0646 10.379L6.40672 5.72109C6.36162 5.67464 6.30765 5.63772 6.24802 5.6125C6.18839 5.58729 6.12431 5.57429 6.05957 5.57429C5.96327 5.57431 5.86917 5.60307 5.7893 5.65687C5.70944 5.71068 5.64744 5.78708 5.61125 5.87632C5.57505 5.96556 5.56631 6.06356 5.58612 6.1578C5.60594 6.25203 5.65342 6.33821 5.7225 6.40531L10.3804 11.0632L5.7225 15.7211C5.67606 15.7657 5.63898 15.8191 5.61344 15.8782C5.5879 15.9373 5.57441 16.0009 5.57376 16.0652C5.5731 16.1296 5.5853 16.1935 5.60963 16.2531C5.63396 16.3127 5.66995 16.3668 5.71547 16.4123C5.76099 16.4579 5.81514 16.4938 5.87474 16.5182C5.93434 16.5425 5.9982 16.5547 6.06257 16.5541C6.12694 16.5534 6.19054 16.5399 6.24963 16.5144C6.30873 16.4888 6.36213 16.4518 6.40672 16.4053L11.0646 11.7474L15.7225 16.4053C15.7671 16.4518 15.8205 16.4888 15.8796 16.5144C15.9387 16.5399 16.0023 16.5534 16.0666 16.5541C16.131 16.5547 16.1949 16.5425 16.2545 16.5182C16.3141 16.4938 16.3682 16.4579 16.4137 16.4123C16.4593 16.3668 16.4952 16.3127 16.5196 16.2531C16.5439 16.1935 16.5561 16.1296 16.5555 16.0652C16.5548 16.0009 16.5413 15.9373 16.5158 15.8782C16.4902 15.8191 16.4532 15.7657 16.4067 15.7211L11.7488 11.0632L16.4067 6.40531C16.4771 6.33778 16.5254 6.25056 16.5453 6.15509C16.5653 6.05962 16.5559 5.96035 16.5184 5.8703C16.481 5.78025 16.4172 5.70363 16.3354 5.65047C16.2536 5.59731 16.1577 5.5701 16.0602 5.5724V5.5724Z" fill="#9CA3AF"/>
</g>
<rect x="0.322581" y="0.322581" width="21.3548" height="21.3548" rx="4.83871" stroke="#4B5563" stroke-opacity="0.5" stroke-width="0.645161"/>
<defs>
<clipPath id="clip0_468_966">
<rect width="22" height="22" rx="5.16129" fill="white"/>
</clipPath>
</defs>
</svg>
