<svg width="11" height="8" viewBox="0 0 11 8" fill="none" xmlns="http://www.w3.org/2000/svg">
<path d="M3.76197 6.2539L9.7907 0.213809C9.93297 0.0712696 10.099 0 10.2886 0C10.4783 0 10.6443 0.0712696 10.7866 0.213809C10.9289 0.356348 11 0.525731 11 0.72196C11 0.918189 10.9289 1.08734 10.7866 1.2294L4.25992 7.78619C4.11765 7.92873 3.95166 8 3.76197 8C3.57228 8 3.40629 7.92873 3.26402 7.78619L0.205198 4.7216C0.0629276 4.57906 -0.00536252 4.40992 0.000328317 4.21416C0.00601915 4.01841 0.0802369 3.84903 0.222982 3.70601C0.365727 3.563 0.534793 3.49173 0.730178 3.4922C0.925563 3.49268 1.09439 3.56395 1.23666 3.70601L3.76197 6.2539Z" fill="#9CA3AF"/>
</svg>
