<svg width="16" height="16" viewBox="0 0 16 16" fill="none" xmlns="http://www.w3.org/2000/svg">
<path fill-rule="evenodd" clip-rule="evenodd" d="M8 0C3.5875 0 0 3.5875 0 8C0 12.4125 3.5875 16 8 16C12.4125 16 16 12.4125 16 8C16 3.5875 12.4125 0 8 0Z" fill="#4BAE4F"/>
<path fill-rule="evenodd" clip-rule="evenodd" d="M11.8687 5.30293C12.0624 5.49668 12.0624 5.81543 11.8687 6.00918L7.18115 10.6967C7.08428 10.7936 6.95615 10.8436 6.82803 10.8436C6.6999 10.8436 6.57178 10.7936 6.4749 10.6967L4.13115 8.35293C3.9374 8.15918 3.9374 7.84043 4.13115 7.64668C4.3249 7.45293 4.64365 7.45293 4.8374 7.64668L6.82803 9.6373L11.1624 5.30293C11.3562 5.10605 11.6749 5.10605 11.8687 5.30293Z" fill="white"/>
</svg>
