<svg width="32" height="30" viewBox="0 0 32 30" fill="none" xmlns="http://www.w3.org/2000/svg">
<path fill-rule="evenodd" clip-rule="evenodd" d="M27.1912 4.12758C24.4104 1.66726 20.7009 0.204248 16.7759 0.0198274C12.8508 -0.164593 8.98739 0.942592 5.92828 3.12852C2.86917 5.31445 0.830339 8.42481 0.203773 11.8616C-0.422793 15.2984 0.407133 18.8191 2.53399 21.7467C2.71719 21.9992 2.73906 22.3007 2.58867 22.6955L0.463381 28.4438C0.411532 28.5831 0.397689 28.7313 0.422987 28.8762C0.448284 29.0212 0.512002 29.1587 0.608917 29.2777C0.705832 29.3966 0.833186 29.4935 0.98054 29.5604C1.12789 29.6273 1.29105 29.6623 1.45664 29.6626C1.56588 29.6625 1.67445 29.6475 1.77862 29.6184L9.76367 27.3655C9.99713 27.2928 10.2518 27.2943 10.4842 27.3697C13.8921 28.4673 17.6208 28.5023 21.0542 27.469C24.4876 26.4357 27.4203 24.396 29.3678 21.6867C31.3153 18.9774 32.161 15.7608 31.7653 12.5682C31.3695 9.37557 29.756 6.39806 27.1912 4.12758ZM15.9283 27.6095C14.151 27.6112 12.3872 27.3372 10.7166 26.8C10.3423 26.678 9.93197 26.6737 9.55449 26.7878L1.57285 29.0408C1.50893 29.0594 1.44041 29.0618 1.37505 29.0476C1.30969 29.0335 1.2501 29.0035 1.20303 28.9609C1.15549 28.9189 1.12192 28.8661 1.106 28.8083C1.09009 28.7505 1.09244 28.69 1.11279 28.6333L3.24082 22.885C3.45 22.311 3.4083 21.8315 3.10957 21.4192C1.52005 19.2397 0.675867 16.6997 0.678713 14.1051C0.678713 6.65844 7.52013 0.600118 15.9283 0.600118C24.3365 0.600118 31.1725 6.65844 31.1725 14.1051C31.1725 21.5518 24.3365 27.6095 15.9283 27.6095ZM19.9226 11.3302V16.88C19.9226 17.1529 19.8001 17.4148 19.5822 17.6078C19.3642 17.8008 19.0687 17.9093 18.7604 17.9093H9.06983C8.76161 17.9093 8.46603 17.8008 8.24809 17.6078C8.03015 17.4148 7.90772 17.1529 7.90772 16.88V11.3302C7.90772 11.0572 8.03015 10.7954 8.24809 10.6024C8.46603 10.4094 8.76161 10.3009 9.06983 10.3009H18.7591C19.0673 10.3009 19.3629 10.4094 19.5808 10.6024C19.7988 10.7954 19.9212 11.0572 19.9212 11.3302H19.9226ZM23.9476 11.6965V16.5143C23.9474 16.5885 23.9252 16.6613 23.8833 16.7256C23.8414 16.7898 23.7811 16.8432 23.7086 16.8803C23.636 16.9175 23.5538 16.9371 23.47 16.9373C23.3862 16.9374 23.3039 16.9181 23.2312 16.8812L20.3307 15.3984V12.8118L23.2312 11.329C23.3039 11.2921 23.3863 11.2728 23.4702 11.2729C23.554 11.2731 23.6363 11.2928 23.7089 11.33C23.7814 11.3672 23.8417 11.4207 23.8836 11.485C23.9254 11.5493 23.9475 11.6223 23.9476 11.6965Z" fill="#0054A6"/>
</svg>
