<svg width="16" height="16" viewBox="0 0 16 16" fill="none" xmlns="http://www.w3.org/2000/svg">
<g clip-path="url(#clip0_2471_4771)">
<path d="M8 0C3.58862 0 0 3.58862 0 8C0 12.4114 3.58862 16 8 16C12.4114 16 16 12.4114 16 8C16 3.58862 12.4114 0 8 0Z" fill="#F44336"/>
<path d="M10.4394 10.1448C10.6722 10.4056 10.6722 10.8268 10.4394 11.0876C10.3841 11.1496 10.3184 11.1987 10.2461 11.2323C10.1739 11.2658 10.0964 11.283 10.0181 11.2829C9.86566 11.2829 9.71317 11.2176 9.59699 11.0876L7.80702 9.08416L6.01705 11.0876C5.9618 11.1496 5.89615 11.1988 5.82388 11.2323C5.7516 11.2658 5.67413 11.283 5.59589 11.2829C5.51765 11.283 5.44016 11.2658 5.36788 11.2323C5.2956 11.1988 5.22994 11.1496 5.17468 11.0876C4.94181 10.8268 4.94181 10.4056 5.17468 10.1448L6.96476 8.14153L5.17465 6.13825C4.94178 5.8775 4.94178 5.45622 5.17465 5.1955C5.40764 4.93488 5.78406 4.93488 6.01705 5.1955L7.80702 7.19891L9.59699 5.19547C9.82997 4.93484 10.2064 4.93484 10.4394 5.19547C10.6722 5.45622 10.6722 5.8775 10.4394 6.13825L8.64927 8.14153L10.4394 10.1448Z" fill="#FAFAFA"/>
</g>
<defs>
<clipPath id="clip0_2471_4771">
<rect width="16" height="16" fill="white"/>
</clipPath>
</defs>
</svg>
