<svg width="16" height="16" viewBox="0 0 16 16" fill="none" xmlns="http://www.w3.org/2000/svg">
<path fill-rule="evenodd" clip-rule="evenodd" d="M3.83333 2.34837C3.38333 2.36754 3.06 2.41004 2.77417 2.50671C2.28532 2.67039 1.8411 2.94522 1.47643 3.30961C1.11175 3.67399 0.836568 4.11799 0.6725 4.60671C0.5 5.12421 0.5 5.76254 0.5 7.04087C0.5 7.12004 0.5 7.16004 0.510833 7.19171C0.521064 7.22236 0.538286 7.25022 0.561138 7.27307C0.58399 7.29592 0.611845 7.31314 0.6425 7.32337C0.674167 7.33421 0.714167 7.33421 0.794167 7.33421H15.2058C15.2858 7.33421 15.3258 7.33421 15.3575 7.32337C15.3882 7.31314 15.416 7.29592 15.4389 7.27307C15.4617 7.25022 15.4789 7.22236 15.4892 7.19171C15.5 7.15921 15.5 7.11921 15.5 7.03921C15.5 5.76171 15.5 5.12254 15.3275 4.60754C15.1637 4.11852 14.8886 3.67418 14.5239 3.3095C14.1592 2.94481 13.7149 2.66972 13.2258 2.50587C12.94 2.41004 12.6158 2.36754 12.1667 2.34837V4.41671C12.1667 4.74823 12.035 5.06617 11.8005 5.30059C11.5661 5.53501 11.2482 5.66671 10.9167 5.66671C10.5851 5.66671 10.2672 5.53501 10.0328 5.30059C9.79836 5.06617 9.66667 4.74823 9.66667 4.41671V2.33337H6.33333V4.41671C6.33333 4.74823 6.20164 5.06617 5.96722 5.30059C5.7328 5.53501 5.41485 5.66671 5.08333 5.66671C4.75181 5.66671 4.43387 5.53501 4.19945 5.30059C3.96503 5.06617 3.83333 4.74823 3.83333 4.41671V2.34837Z" fill="#505763"/>
<path d="M0.5 8.58341C0.5 8.38675 0.5 8.28841 0.560833 8.22758C0.621667 8.16675 0.72 8.16675 0.916667 8.16675H15.0833C15.28 8.16675 15.3783 8.16675 15.4392 8.22758C15.5 8.28841 15.5 8.38675 15.5 8.58341V9.00008C15.5 12.1426 15.5 13.7142 14.5233 14.6901C13.5475 15.6667 11.9758 15.6667 8.83333 15.6667H7.16667C4.02417 15.6667 2.4525 15.6667 1.47667 14.6901C0.5 13.7142 0.5 12.1426 0.5 9.00008V8.58341Z" fill="#AAB0BB"/>
<path d="M5.08325 1.08337V4.41671M10.9166 1.08337V4.41671" stroke="#505763" stroke-linecap="round"/>
</svg>
