<svg width="20" height="20" viewBox="0 0 20 20" fill="none" xmlns="http://www.w3.org/2000/svg">
<path fill-rule="evenodd" clip-rule="evenodd" d="M4.86669 3.46735C4.34468 3.48958 3.96961 3.53889 3.63805 3.65102C3.07098 3.84089 2.55568 4.1597 2.13266 4.58239C1.70964 5.00507 1.39042 5.52012 1.2001 6.08703C1 6.68733 1 7.4278 1 8.91068C1 9.00251 1 9.04891 1.01257 9.08564C1.02443 9.1212 1.04441 9.15352 1.07092 9.18003C1.09743 9.20653 1.12974 9.22651 1.1653 9.23838C1.20203 9.25095 1.24843 9.25095 1.34123 9.25095H18.0588C18.1516 9.25095 18.198 9.25095 18.2348 9.23838C18.2703 9.22651 18.3027 9.20653 18.3292 9.18003C18.3557 9.15352 18.3756 9.1212 18.3875 9.08564C18.4001 9.04794 18.4001 9.00154 18.4001 8.90874C18.4001 7.42684 18.4001 6.6854 18.2 6.088C18.0099 5.52073 17.6908 5.0053 17.2678 4.58226C16.8447 4.15922 16.3293 3.84012 15.762 3.65005C15.4305 3.53888 15.0544 3.48958 14.5334 3.46735V5.86663C14.5334 6.2512 14.3806 6.62001 14.1087 6.89194C13.8368 7.16387 13.468 7.31664 13.0834 7.31664C12.6988 7.31664 12.33 7.16387 12.0581 6.89194C11.7862 6.62001 11.6334 6.2512 11.6334 5.86663V3.44995H7.7667V5.86663C7.7667 6.2512 7.61393 6.62001 7.342 6.89194C7.07007 7.16387 6.70126 7.31664 6.31669 7.31664C5.93213 7.31664 5.56331 7.16387 5.29138 6.89194C5.01945 6.62001 4.86669 6.2512 4.86669 5.86663V3.46735Z" fill="#AAB0BB"/>
<path d="M1 10.6999C1 10.4718 1 10.3577 1.07057 10.2871C1.14113 10.2166 1.2552 10.2166 1.48334 10.2166H17.9167C18.1449 10.2166 18.2589 10.2166 18.3295 10.2871C18.4001 10.3577 18.4001 10.4718 18.4001 10.6999V11.1832C18.4001 14.8285 18.4001 16.6517 17.2671 17.7837C16.1352 18.9166 14.312 18.9166 10.6667 18.9166H8.73337C5.08805 18.9166 3.26491 18.9166 2.13294 17.7837C1 16.6517 1 14.8285 1 11.1832V10.6999Z" fill="#AAB0BB"/>
<path d="M6.31665 2V5.86669M13.0833 2V5.86669" stroke="#AAB0BB" stroke-linecap="round"/>
</svg>
