<svg width="24" height="24" viewBox="0 0 24 24" fill="none" xmlns="http://www.w3.org/2000/svg">
<path d="M12.0002 5.33398C8.32418 5.33398 5.3335 8.32468 5.3335 12.0007C5.3335 15.6766 8.32418 18.6673 12.0002 18.6673C15.6761 18.6673 18.6668 15.6766 18.6668 12.0007C18.6668 8.32468 15.6761 5.33398 12.0002 5.33398ZM12.0002 6.33398C15.1357 6.33398 17.6668 8.86511 17.6668 12.0007C17.6668 15.1362 15.1357 17.6673 12.0002 17.6673C8.86462 17.6673 6.3335 15.1362 6.3335 12.0007C6.3335 8.86511 8.86462 6.33398 12.0002 6.33398ZM9.16683 9.33398C9.10057 9.33305 9.03479 9.34529 8.97331 9.37C8.91182 9.3947 8.85586 9.43138 8.80868 9.4779C8.76149 9.52443 8.72403 9.57986 8.69845 9.64099C8.67288 9.70212 8.65971 9.76772 8.65971 9.83398C8.65971 9.90025 8.67288 9.96585 8.69845 10.027C8.72403 10.0881 8.76149 10.1435 8.80868 10.1901C8.85586 10.2366 8.91182 10.2733 8.97331 10.298C9.03479 10.3227 9.10057 10.3349 9.16683 10.334H10.5002C10.5664 10.3349 10.6322 10.3227 10.6937 10.298C10.7552 10.2733 10.8111 10.2366 10.8583 10.1901C10.9055 10.1435 10.943 10.0881 10.9685 10.027C10.9941 9.96585 11.0073 9.90025 11.0073 9.83398C11.0073 9.76772 10.9941 9.70212 10.9685 9.64099C10.943 9.57986 10.9055 9.52443 10.8583 9.4779C10.8111 9.43138 10.7552 9.3947 10.6937 9.37C10.6322 9.34529 10.5664 9.33305 10.5002 9.33398H9.16683ZM13.5002 9.33398C13.4339 9.33305 13.3681 9.34529 13.3066 9.37C13.2452 9.3947 13.1892 9.43138 13.142 9.4779C13.0948 9.52443 13.0574 9.57986 13.0318 9.64099C13.0062 9.70212 12.993 9.76772 12.993 9.83398C12.993 9.90025 13.0062 9.96585 13.0318 10.027C13.0574 10.0881 13.0948 10.1435 13.142 10.1901C13.1892 10.2366 13.2452 10.2733 13.3066 10.298C13.3681 10.3227 13.4339 10.3349 13.5002 10.334H14.8335C14.8998 10.3349 14.9655 10.3227 15.027 10.298C15.0885 10.2733 15.1445 10.2366 15.1916 10.1901C15.2388 10.1435 15.2763 10.0881 15.3019 10.027C15.3274 9.96585 15.3406 9.90025 15.3406 9.83398C15.3406 9.76772 15.3274 9.70212 15.3019 9.64099C15.2763 9.57986 15.2388 9.52443 15.1916 9.4779C15.1445 9.43138 15.0885 9.3947 15.027 9.37C14.9655 9.34529 14.8998 9.33305 14.8335 9.33398H13.5002ZM9.16683 12.0007C9.03423 12.0007 8.90706 12.0533 8.81329 12.1471C8.71953 12.2409 8.66684 12.368 8.66683 12.5007C8.66683 14.3356 10.1297 16.0007 12.0002 16.0007C13.8706 16.0007 15.3335 14.3356 15.3335 12.5007C15.3335 12.368 15.2808 12.2409 15.187 12.1471C15.0933 12.0533 14.9661 12.0007 14.8335 12.0007H9.16683ZM9.76709 13.0007H14.2332C13.9985 14.0846 13.0911 15.0007 12.0002 15.0007C10.9093 15.0007 10.0018 14.0846 9.76709 13.0007Z" fill="#9CA3AF"/>
</svg>
