<svg width="32" height="32" viewBox="0 0 32 32" fill="none" xmlns="http://www.w3.org/2000/svg">
<rect width="32" height="32" rx="16" fill="#E78895"/>
<path d="M11.9091 21.5V9.86364H15.8409C16.75 9.86364 17.4962 10.0189 18.0795 10.3295C18.6629 10.6364 19.0947 11.0587 19.375 11.5966C19.6553 12.1345 19.7955 12.7462 19.7955 13.4318C19.7955 14.1174 19.6553 14.7254 19.375 15.2557C19.0947 15.786 18.6648 16.2027 18.0852 16.5057C17.5057 16.8049 16.7652 16.9545 15.8636 16.9545H12.6818V15.6818H15.8182C16.4394 15.6818 16.9394 15.5909 17.3182 15.4091C17.7008 15.2273 17.9773 14.9697 18.1477 14.6364C18.322 14.2992 18.4091 13.8977 18.4091 13.4318C18.4091 12.9659 18.322 12.5587 18.1477 12.2102C17.9735 11.8617 17.6951 11.5928 17.3125 11.4034C16.9299 11.2102 16.4242 11.1136 15.7955 11.1136H13.3182V21.5H11.9091ZM17.3864 16.2727L20.25 21.5H18.6136L15.7955 16.2727H17.3864Z" fill="white"/>
</svg>
