<svg width="243" height="190" viewBox="0 0 243 190" fill="none" xmlns="http://www.w3.org/2000/svg">
<path d="M198.426 189.74H23.6659C17.451 189.586 11.544 187.067 7.20551 182.722C2.86699 178.376 0.440571 172.548 0.444096 166.481V47.3709C0.444096 46.1658 0.934638 45.01 1.80781 44.1578C2.68098 43.3057 3.86525 42.8269 5.1001 42.8269C6.33494 42.8269 7.51921 43.3057 8.39238 44.1578C9.26555 45.01 9.75609 46.1658 9.75609 47.3709V166.481C9.75401 170.173 11.2298 173.721 13.8689 176.367C16.508 179.013 20.1017 180.549 23.8841 180.646H198.839C200.074 180.625 201.267 181.082 202.156 181.919C203.045 182.756 203.557 183.903 203.58 185.108C203.602 186.313 203.133 187.478 202.276 188.345C201.418 189.213 200.243 189.713 199.008 189.734L198.426 189.74ZM217.606 56.7032C216.371 56.7032 215.187 56.2244 214.313 55.3723C213.44 54.5201 212.95 53.3643 212.95 52.1592V47.3709C212.942 43.6142 211.409 40.0135 208.687 37.3574C205.965 34.7012 202.275 33.2061 198.426 33.1993H94.9405C93.7057 33.1993 92.5214 32.7206 91.6482 31.8684C90.7751 31.0163 90.2845 29.8605 90.2845 28.6553C90.2845 27.4502 90.7751 26.2944 91.6482 25.4422C92.5214 24.5901 93.7057 24.1113 94.9405 24.1113H198.426C204.745 24.1181 210.803 26.5707 215.272 30.9312C219.74 35.2917 222.254 41.2039 222.262 47.3709V52.1592C222.262 53.3643 221.771 54.5201 220.898 55.3723C220.025 56.2244 218.841 56.7032 217.606 56.7032Z" fill="#747474"/>
<path d="M198.426 189.74H23.6979C23.0865 189.729 22.4832 189.601 21.9226 189.362C21.3619 189.124 20.8548 188.78 20.4303 188.351C20.0058 187.921 19.6722 187.414 19.4484 186.859C19.2247 186.303 19.1152 185.71 19.1263 185.114C19.1374 184.517 19.2688 183.928 19.513 183.381C19.7572 182.834 20.1095 182.339 20.5497 181.925C20.9899 181.51 21.5093 181.185 22.0785 180.966C22.6476 180.748 23.2552 180.641 23.8667 180.652H198.839C205.951 180.513 211.975 176.599 212.845 171.55C213.014 170.563 213.179 169.578 213.34 168.593C213.701 166.409 214.076 164.151 214.504 161.908L233.244 66.6713C232.953 61.2299 226.426 56.7029 218.732 56.7029H44.5742C36.6998 56.7029 30.0504 61.4429 30.0504 67.0519C30.0508 67.3377 30.0235 67.623 29.969 67.9039L9.88995 170.096C9.64547 171.267 8.93784 172.297 7.92042 172.963C6.903 173.629 5.65776 173.876 4.45457 173.652C3.25137 173.428 2.18716 172.75 1.49256 171.765C0.79797 170.781 0.528956 169.569 0.743821 168.392L20.7443 66.6003C20.8927 61.3861 23.4942 56.5666 28.1124 52.9683C32.5559 49.5177 38.4021 47.6178 44.5742 47.6178H218.72C224.892 47.6178 230.739 49.5177 235.182 52.9683C239.937 56.6603 242.556 61.6616 242.556 67.0519C242.555 67.3378 242.527 67.6231 242.472 67.9039L223.661 163.612C223.245 165.725 222.885 167.914 222.532 170.036C222.366 171.038 222.198 172.04 222.029 173.044C220.405 182.484 210.727 189.516 199.017 189.731L198.426 189.74ZM5.10009 51.9147C3.86524 51.9147 2.68097 51.4359 1.8078 50.5838C0.934634 49.7316 0.444092 48.5758 0.444092 47.3707V14.1966C0.447944 10.5018 1.95361 6.9593 4.63068 4.34663C7.30774 1.73396 10.9375 0.26451 14.7235 0.260751H80.6059C83.7759 0.257271 86.8568 1.28487 89.3616 3.18116C91.8664 5.07746 93.6523 7.7343 94.4371 10.7318L99.4103 27.3828C99.5906 27.9582 99.6519 28.5629 99.5908 29.1618C99.5297 29.7606 99.3473 30.3416 99.0542 30.8711C98.7612 31.4005 98.3633 31.8679 97.8836 32.2461C97.4039 32.6242 96.8521 32.9056 96.2601 33.074C95.6681 33.2423 95.0477 33.2942 94.435 33.2266C93.8223 33.1591 93.2294 32.9734 92.6908 32.6804C92.1522 32.3874 91.6786 31.9929 91.2975 31.5198C90.9164 31.0467 90.6354 30.5045 90.4708 29.9245L85.4743 13.2083C85.4568 13.1515 85.4423 13.0919 85.4277 13.0351C85.1628 11.9835 84.5432 11.0494 83.6687 10.3829C82.7942 9.7164 81.7154 9.35617 80.6059 9.36011H14.7235C13.4085 9.3616 12.1477 9.87128 11.2168 10.7777C10.2859 11.684 9.76071 12.9133 9.75609 14.1966V47.3707C9.75609 48.5758 9.26555 49.7316 8.39238 50.5838C7.51921 51.4359 6.33494 51.9147 5.10009 51.9147Z" fill="#747474"/>
<path d="M106.007 140.542C105.084 140.545 104.18 140.279 103.412 139.779C102.644 139.279 102.045 138.567 101.692 137.734C101.339 136.901 101.248 135.985 101.431 135.101C101.613 134.217 102.06 133.407 102.716 132.772L133.699 102.546C134.129 102.114 134.642 101.769 135.21 101.533C135.777 101.296 136.387 101.172 137.005 101.167C137.622 101.163 138.234 101.278 138.805 101.506C139.376 101.735 139.895 102.071 140.331 102.497C140.768 102.923 141.113 103.429 141.347 103.986C141.582 104.544 141.7 105.141 141.696 105.743C141.691 106.345 141.564 106.941 141.322 107.495C141.08 108.049 140.727 108.55 140.284 108.97L109.301 139.21C108.869 139.633 108.355 139.968 107.79 140.196C107.225 140.425 106.619 140.542 106.007 140.542Z" fill="#747474"/>
<path d="M136.993 140.542C136.381 140.542 135.775 140.425 135.21 140.196C134.645 139.968 134.131 139.633 133.699 139.21L102.716 108.97C102.273 108.55 101.921 108.049 101.678 107.495C101.436 106.941 101.309 106.345 101.305 105.743C101.3 105.141 101.419 104.544 101.653 103.986C101.887 103.429 102.233 102.923 102.669 102.497C103.106 102.071 103.625 101.735 104.196 101.506C104.767 101.278 105.379 101.163 105.996 101.167C106.613 101.172 107.223 101.296 107.79 101.533C108.358 101.769 108.872 102.114 109.301 102.546L140.284 132.772C140.936 133.407 141.38 134.217 141.56 135.099C141.74 135.98 141.648 136.894 141.296 137.725C140.943 138.556 140.346 139.266 139.581 139.765C138.815 140.265 137.914 140.531 136.993 140.531V140.542Z" fill="#747474"/>
<path d="M121.5 166.318C115.383 166.334 109.324 165.165 103.672 162.88C98.0211 160.595 92.8902 157.24 88.5764 153.007C70.4238 135.291 70.4238 106.462 88.5764 88.7464C92.8999 84.5267 98.0327 81.1794 103.682 78.8957C109.331 76.6119 115.386 75.4365 121.5 75.4365C127.615 75.4365 133.669 76.6119 139.318 78.8957C144.967 81.1794 150.1 84.5267 154.424 88.7464C172.576 106.462 172.576 135.291 154.424 153.007C150.11 157.24 144.979 160.595 139.328 162.88C133.676 165.165 127.617 166.334 121.5 166.318ZM121.5 84.5262C115.375 84.5262 109.344 86.0006 103.942 88.8186C98.5394 91.6367 93.9328 95.7116 90.5297 100.682C87.1265 105.653 85.032 111.366 84.4316 117.315C83.8313 123.264 84.7435 129.266 87.0876 134.79C89.4317 140.313 93.1354 145.186 97.8704 148.979C102.605 152.771 108.226 155.365 114.234 156.532C120.241 157.698 126.451 157.4 132.313 155.665C138.174 153.93 143.507 150.81 147.839 146.583C153.048 141.499 156.595 135.022 158.033 127.97C159.47 120.919 158.732 113.609 155.913 106.967C153.094 100.324 148.32 94.6469 142.194 90.6525C136.069 86.6581 128.867 84.5261 121.5 84.5262Z" fill="#747474"/>
</svg>
