<svg width="24" height="24" viewBox="0 0 24 24" fill="none" xmlns="http://www.w3.org/2000/svg">
<path d="M14.4961 5.34827C13.5097 5.34827 12.5234 5.7226 11.7747 6.47131L5.54359 12.7024C5.47961 12.7639 5.42853 12.8374 5.39334 12.9189C5.35815 13.0003 5.33956 13.0879 5.33866 13.1766C5.33776 13.2653 5.35456 13.3533 5.38809 13.4354C5.42161 13.5175 5.47119 13.5921 5.5339 13.6548C5.59662 13.7175 5.67123 13.7671 5.75334 13.8006C5.83546 13.8342 5.92344 13.851 6.01214 13.8501C6.10083 13.8492 6.18845 13.8306 6.26987 13.7954C6.35129 13.7602 6.42487 13.7091 6.4863 13.6451L12.7174 7.41402C13.7053 6.42611 15.2868 6.42611 16.2747 7.41402C17.2626 8.40193 17.2626 9.9834 16.2747 10.9713L10.2695 16.9765C9.78797 17.4581 9.02708 17.4581 8.54555 16.9765C8.06401 16.495 8.06401 15.7341 8.54555 15.2526L13.3268 10.4713C13.3908 10.4099 13.4419 10.3363 13.4771 10.2549C13.5122 10.1735 13.5308 10.0858 13.5317 9.99715C13.5326 9.90846 13.5158 9.82047 13.4823 9.73836C13.4488 9.65624 13.3992 9.58163 13.3365 9.51892C13.2738 9.4562 13.1992 9.40662 13.117 9.3731C13.0349 9.33957 12.9469 9.32277 12.8583 9.32367C12.7696 9.32457 12.6819 9.34316 12.6005 9.37835C12.5191 9.41354 12.4455 9.46462 12.3841 9.52861L7.60284 14.3099C6.6117 15.301 6.6117 16.9281 7.60284 17.9192C8.59397 18.9104 10.2211 18.9104 11.2122 17.9192L17.2174 11.914C18.7148 10.4166 18.7148 7.96873 17.2174 6.47131C16.4687 5.7226 15.4824 5.34827 14.4961 5.34827Z" fill="#9CA3AF"/>
</svg>
