<svg width="21" height="20" viewBox="0 0 21 20" fill="none" xmlns="http://www.w3.org/2000/svg">
<path fill-rule="evenodd" clip-rule="evenodd" d="M20.433 10.2271C20.433 9.518 20.3667 8.83619 20.2435 8.18164H10.425V12.0498H16.0356C15.7939 13.2998 15.0594 14.3589 13.9553 15.068V17.5771H17.3245C19.2958 15.8362 20.433 13.2725 20.433 10.2271Z" fill="#4285F4"/>
<path fill-rule="evenodd" clip-rule="evenodd" d="M10.425 20.0004C13.2398 20.0004 15.5996 19.1049 17.3245 17.5777L13.9553 15.0686C13.0218 15.6686 11.8277 16.0231 10.425 16.0231C7.70981 16.0231 5.41157 14.264 4.59178 11.9004H1.10889V14.4913C2.82427 17.7595 6.34982 20.0004 10.425 20.0004Z" fill="#34A853"/>
<path fill-rule="evenodd" clip-rule="evenodd" d="M4.59174 11.8997C4.38324 11.2997 4.26477 10.6588 4.26477 9.9997C4.26477 9.34061 4.38324 8.6997 4.59174 8.0997V5.50879H1.10884C0.402784 6.85879 0 8.38606 0 9.9997C0 11.6133 0.402784 13.1406 1.10884 14.4906L4.59174 11.8997Z" fill="#FBBC05"/>
<path fill-rule="evenodd" clip-rule="evenodd" d="M10.425 3.97727C11.9556 3.97727 13.3298 4.48182 14.4102 5.47273L17.4003 2.60455C15.5949 0.990909 13.2351 0 10.425 0C6.34982 0 2.82427 2.24091 1.10889 5.50909L4.59178 8.1C5.41157 5.73636 7.70981 3.97727 10.425 3.97727Z" fill="#EA4335"/>
</svg>
