<svg width="16" height="16" viewBox="0 0 16 16" fill="none" xmlns="http://www.w3.org/2000/svg">
<path d="M8.4561 6.58086C8.53423 6.58086 8.59985 6.64648 8.59985 6.72461V11.5309C8.59985 11.6152 8.6686 11.684 8.75298 11.684H9.18423C9.35923 11.684 9.50298 11.8277 9.50298 12.0027C9.50298 12.1777 9.35923 12.3215 9.18423 12.3215H6.80923C6.63423 12.3215 6.49048 12.1777 6.49048 12.0027C6.49048 11.8277 6.63423 11.684 6.80923 11.684H7.24048C7.32485 11.684 7.3936 11.6152 7.3936 11.5309V7.37148C7.3936 7.28711 7.32485 7.21836 7.24048 7.21836H6.80923C6.63423 7.21836 6.49048 7.07461 6.49048 6.90273C6.4936 6.72773 6.63735 6.58398 6.81235 6.58398L8.4561 6.58086ZM8.37485 4.00586C8.49673 4.17773 8.54673 4.38711 8.51235 4.59336C8.4811 4.79961 8.3686 4.98398 8.19673 5.10586C8.02485 5.22773 7.81548 5.27773 7.60923 5.24336C7.40298 5.21211 7.2186 5.09961 7.09673 4.92773C6.97485 4.75586 6.92485 4.54648 6.95923 4.34023C7.02173 3.95273 7.35923 3.67773 7.73735 3.67773C7.7811 3.67773 7.82173 3.68086 7.86235 3.69023C8.0686 3.72461 8.25298 3.83711 8.37485 4.00586Z" fill="#4D81C2"/>
<path d="M6.8093 7.52461H7.08743V11.384H6.8093C6.46555 11.384 6.18743 11.6621 6.18743 12.0059C6.18743 12.3496 6.46555 12.6277 6.8093 12.6277H9.1843C9.52805 12.6277 9.8093 12.3465 9.8093 12.0059C9.8093 11.6621 9.53118 11.384 9.18743 11.384H8.90931V6.73086C8.90931 6.48086 8.70618 6.28086 8.45931 6.28086H6.81243C6.47181 6.28086 6.19056 6.55898 6.18743 6.90273C6.18743 7.24648 6.46555 7.52461 6.8093 7.52461ZM6.84993 5.10586C7.0218 5.34336 7.27493 5.49961 7.56243 5.54648C7.6218 5.55586 7.68118 5.56211 7.74055 5.56211C7.96868 5.56211 8.19056 5.49023 8.37806 5.35273C8.61556 5.18086 8.77181 4.92773 8.81868 4.64023C8.86243 4.34961 8.7968 4.06211 8.62493 3.82461C8.45305 3.58711 8.19993 3.43086 7.91243 3.38398C7.6218 3.34023 7.33431 3.40586 7.09681 3.57773C6.8593 3.74961 6.70305 4.00273 6.65618 4.29023C6.61243 4.58086 6.67805 4.86836 6.84993 5.10586ZM12.6093 3.53711C13.8281 4.79648 14.4656 6.45586 14.4062 8.20898C14.2968 11.6465 11.4281 14.4121 7.99055 14.4121H7.90931C6.79056 14.3996 5.69055 14.0871 4.72493 13.5152C4.72493 13.5121 4.7218 13.5121 4.7218 13.5121C4.65305 13.4746 4.57805 13.4559 4.49993 13.4559C4.45618 13.4559 4.4093 13.4621 4.36243 13.4715C3.38118 13.7902 2.43118 13.7621 1.89993 13.7059C2.24993 13.4527 2.61243 13.0402 2.98118 12.4746C3.08743 12.3184 3.07805 12.1121 2.9593 11.959C2.07493 10.8371 1.60305 9.48711 1.58743 8.05586C1.5718 6.34023 2.23118 4.71836 3.4468 3.49023C4.05305 2.87461 4.76243 2.39961 5.5343 2.07773C6.30618 1.75586 7.13743 1.58398 7.9968 1.58398H8.00306C9.75618 1.58711 11.3906 2.27773 12.6093 3.53711Z" fill="#03A8DD"/>
</svg>
