<svg width="24" height="24" viewBox="0 0 24 24" fill="none" xmlns="http://www.w3.org/2000/svg">
<path d="M12.0002 12.6279C11.4621 12.6279 10.936 12.7875 10.4886 13.0865C10.0411 13.3854 9.69236 13.8104 9.48642 14.3076C9.28048 14.8048 9.22659 15.3518 9.33158 15.8797C9.43657 16.4075 9.69571 16.8923 10.0762 17.2728C10.4568 17.6533 10.9416 17.9125 11.4694 18.0175C11.9972 18.1225 12.5443 18.0686 13.0415 17.8626C13.5387 17.6567 13.9636 17.308 14.2626 16.8605C14.5616 16.413 14.7212 15.887 14.7212 15.3488C14.7203 14.6275 14.4333 13.9359 13.9232 13.4258C13.4132 12.9157 12.7216 12.6288 12.0002 12.6279ZM12.0002 16.8139C11.7105 16.8139 11.4272 16.728 11.1863 16.567C10.9453 16.406 10.7575 16.1772 10.6466 15.9095C10.5357 15.6418 10.5067 15.3472 10.5633 15.063C10.6198 14.7788 10.7593 14.5177 10.9642 14.3128C11.1691 14.1079 11.4302 13.9684 11.7144 13.9119C11.9986 13.8553 12.2932 13.8843 12.5609 13.9952C12.8286 14.1061 13.0574 14.2939 13.2184 14.5349C13.3794 14.7758 13.4653 15.0591 13.4653 15.3488C13.4649 15.7373 13.3104 16.1097 13.0357 16.3843C12.7611 16.659 12.3887 16.8135 12.0002 16.8139Z" fill="#D1D5DB"/>
<path d="M17.6512 9.77972V8.65116C17.6512 6.22326 17.0651 3 12 3C6.93488 3 6.34884 6.22326 6.34884 8.65116V9.77972C3.82381 10.0895 3 11.3704 3 14.5116V16.186C3 19.8756 4.12521 21 7.81395 21H16.186C19.8748 21 21 19.8756 21 16.186V14.5116C21 11.3671 20.1762 10.0895 17.6512 9.77972ZM7.60465 8.65116C7.60465 6.01312 8.35228 4.25581 12 4.25581C15.6477 4.25581 16.3953 6.01395 16.3953 8.65116V9.70186C16.3242 9.70186 16.2589 9.69767 16.186 9.69767H7.81395C7.74112 9.69767 7.67581 9.69767 7.60465 9.70186V8.65116ZM19.7442 16.186C19.7442 19.1791 19.1791 19.7442 16.186 19.7442H7.81395C4.82093 19.7442 4.25581 19.1791 4.25581 16.186V14.5116C4.25581 11.5186 4.82093 10.9535 7.81395 10.9535H16.186C19.1791 10.9535 19.7442 11.5186 19.7442 14.5116V16.186Z" fill="#D1D5DB"/>
</svg>
