<svg width="31" height="30" viewBox="0 0 31 30" fill="none" xmlns="http://www.w3.org/2000/svg">
<path d="M24.5351 13.7856V4.00481C24.5351 3.20186 23.9528 2.54858 23.2371 2.54858H22.2467V1.64184C22.2467 1.01225 21.7902 0.5 21.229 0.5H20.2479C19.6867 0.5 19.2301 1.01218 19.2301 1.64184V2.54858H16.5994V1.64184C16.5994 1.01225 16.1429 0.5 15.5818 0.5H14.6006C14.0395 0.5 13.5829 1.01218 13.5829 1.64184V2.54858H10.9522V1.64184C10.9522 1.01225 10.4957 0.5 9.93446 0.5H8.95345C8.39227 0.5 7.93569 1.01218 7.93569 1.64184V2.54858H5.30503V1.64184C5.30503 1.01225 4.84851 0.5 4.28728 0.5H3.30626C2.74503 0.5 2.28839 1.01218 2.28839 1.64184V2.54858H1.29797C0.582287 2.54858 0 3.20186 0 4.00481V24.7506C0 25.5536 0.582287 26.2068 1.29797 26.2068H18.283C19.5569 28.1993 21.6384 29.5 23.9859 29.5C27.8535 29.5 31 25.9699 31 21.6308C31 17.499 28.147 14.1009 24.5351 13.7856ZM20.3285 1.73235H21.1483V4.5973H20.3285V1.73235ZM14.6813 1.73235H15.501V4.5973H14.6813V1.73235ZM9.03412 1.73235H9.85379V4.5973H9.03412V1.73235ZM3.38681 1.73235H4.2066V4.5973H3.38681V1.73235ZM1.29797 3.78093H2.28839V4.68767C2.28839 5.31734 2.74496 5.82965 3.30626 5.82965H4.28728C4.84845 5.82965 5.30503 5.3174 5.30503 4.68767V3.78093H7.93569V4.68767C7.93569 5.31734 8.39221 5.82965 8.95345 5.82965H9.93446C10.4956 5.82965 10.9522 5.3174 10.9522 4.68767V3.78093H13.5829V4.68767C13.5829 5.31734 14.0394 5.82965 14.6006 5.82965H15.5818C16.1429 5.82965 16.5994 5.3174 16.5994 4.68767V3.78093H19.2301V4.68767C19.2301 5.31734 19.6866 5.82965 20.2479 5.82965H21.229C21.7901 5.82965 22.2467 5.3174 22.2467 4.68767V3.78093H23.2371C23.3453 3.78093 23.4367 3.88342 23.4367 4.00481V6.87476H1.09843V4.00481C1.09843 3.88342 1.18978 3.78093 1.29797 3.78093ZM1.29797 24.9745C1.18984 24.9745 1.09843 24.872 1.09843 24.7506V8.10704H23.4367V13.7855C19.8248 14.1009 16.9719 17.499 16.9719 21.6307C16.9719 22.8257 17.211 23.959 17.6375 24.9744H1.29797V24.9745ZM23.9859 28.2676C20.724 28.2676 18.0703 25.2904 18.0703 21.6309C18.0703 17.9713 20.724 14.994 23.9859 14.994C27.2478 14.994 29.9016 17.9713 29.9016 21.6309C29.9016 25.2903 27.2478 28.2676 23.9859 28.2676ZM5.90239 19.5468H3.13582C2.99016 19.5468 2.85047 19.6118 2.74747 19.7273C2.64447 19.8429 2.58661 19.9996 2.58661 20.163V23.3291C2.58661 23.4925 2.64447 23.6492 2.74747 23.7648C2.85047 23.8803 2.99016 23.9452 3.13582 23.9452H5.90239C6.04805 23.9452 6.18774 23.8803 6.29074 23.7648C6.39374 23.6492 6.4516 23.4925 6.4516 23.3291V20.163C6.4516 19.9996 6.39374 19.8429 6.29074 19.7273C6.18774 19.6118 6.04805 19.5468 5.90239 19.5468ZM5.35318 22.7129H3.68503V20.7792H5.35318V22.7129ZM18.6327 13.5348H21.3994C21.5451 13.5348 21.6848 13.4699 21.7878 13.3543C21.8907 13.2388 21.9486 13.082 21.9486 12.9186V9.75257C21.9486 9.58915 21.8907 9.43243 21.7878 9.31687C21.6848 9.20131 21.5451 9.1364 21.3994 9.1364H18.6327C18.487 9.1364 18.3474 9.20131 18.2444 9.31687C18.1414 9.43243 18.0835 9.58915 18.0835 9.75257V12.9186C18.0835 13.082 18.1414 13.2388 18.2444 13.3543C18.3474 13.4699 18.487 13.5348 18.6327 13.5348ZM19.1819 10.3687H20.8502V12.3024H19.1819V10.3687ZM16.2337 14.3416H13.467C13.3213 14.3416 13.1816 14.4065 13.0786 14.5221C12.9756 14.6376 12.9178 14.7943 12.9178 14.9578V18.1237C12.9178 18.2872 12.9756 18.4439 13.0786 18.5594C13.1816 18.675 13.3213 18.7399 13.467 18.7399H16.2337C16.3793 18.7399 16.519 18.675 16.622 18.5594C16.725 18.4439 16.7829 18.2872 16.7829 18.1237V14.9578C16.7829 14.7943 16.725 14.6376 16.622 14.5221C16.519 14.4065 16.3793 14.3416 16.2337 14.3416ZM15.6845 17.5076H14.0162V15.5739H15.6845V17.5076ZM11.068 9.1364H8.30135C8.15569 9.1364 8.01599 9.20131 7.913 9.31687C7.81 9.43243 7.75214 9.58915 7.75214 9.75257V12.9186C7.75214 13.082 7.81 13.2388 7.913 13.3543C8.01599 13.4699 8.15569 13.5348 8.30135 13.5348H11.068C11.2137 13.5348 11.3534 13.4699 11.4564 13.3543C11.5594 13.2388 11.6173 13.082 11.6173 12.9186V9.75257C11.6173 9.58915 11.5594 9.43243 11.4564 9.31687C11.3534 9.20131 11.2137 9.1364 11.068 9.1364ZM10.5188 12.3024H8.85056V10.3687H10.5188V12.3024ZM16.2337 19.5468H13.467C13.3213 19.5468 13.1816 19.6118 13.0786 19.7273C12.9756 19.8429 12.9178 19.9996 12.9178 20.163V23.3291C12.9178 23.4925 12.9756 23.6492 13.0786 23.7648C13.1816 23.8803 13.3213 23.9452 13.467 23.9452H16.2337C16.3793 23.9452 16.519 23.8803 16.622 23.7648C16.725 23.6492 16.7829 23.4925 16.7829 23.3291V20.163C16.7829 19.9996 16.725 19.8429 16.622 19.7273C16.519 19.6118 16.3793 19.5468 16.2337 19.5468ZM15.6845 22.7129H14.0162V20.7792H15.6845V22.7129ZM16.2337 9.1364H13.467C13.3213 9.1364 13.1816 9.20131 13.0786 9.31687C12.9756 9.43243 12.9178 9.58915 12.9178 9.75257V12.9186C12.9178 13.082 12.9756 13.2388 13.0786 13.3543C13.1816 13.4699 13.3213 13.5348 13.467 13.5348H16.2337C16.3793 13.5348 16.519 13.4699 16.622 13.3543C16.725 13.2388 16.7829 13.082 16.7829 12.9186V9.75257C16.7829 9.58915 16.725 9.43243 16.622 9.31687C16.519 9.20131 16.3793 9.1364 16.2337 9.1364ZM15.6845 12.3024H14.0162V10.3687H15.6845V12.3024ZM11.068 14.3416H8.30135C8.15569 14.3416 8.01599 14.4065 7.913 14.5221C7.81 14.6376 7.75214 14.7943 7.75214 14.9578V18.1237C7.75214 18.2872 7.81 18.4439 7.913 18.5594C8.01599 18.675 8.15569 18.7399 8.30135 18.7399H11.068C11.2137 18.7399 11.3534 18.675 11.4564 18.5594C11.5594 18.4439 11.6173 18.2872 11.6173 18.1237V14.9578C11.6173 14.7943 11.5594 14.6376 11.4564 14.5221C11.3534 14.4065 11.2137 14.3416 11.068 14.3416ZM10.5188 17.5076H8.85056V15.5739H10.5188V17.5076ZM5.90239 14.3416H3.13582C2.99016 14.3416 2.85047 14.4065 2.74747 14.5221C2.64447 14.6376 2.58661 14.7943 2.58661 14.9578V18.1237C2.58661 18.2872 2.64447 18.4439 2.74747 18.5594C2.85047 18.675 2.99016 18.7399 3.13582 18.7399H5.90239C6.04805 18.7399 6.18774 18.675 6.29074 18.5594C6.39374 18.4439 6.4516 18.2872 6.4516 18.1237V14.9578C6.4516 14.7943 6.39374 14.6376 6.29074 14.5221C6.18774 14.4065 6.04805 14.3416 5.90239 14.3416ZM5.35318 17.5076H3.68503V15.5739H5.35318V17.5076ZM5.90239 9.1364H3.13582C2.99016 9.1364 2.85047 9.20131 2.74747 9.31687C2.64447 9.43243 2.58661 9.58915 2.58661 9.75257V12.9186C2.58661 13.082 2.64447 13.2388 2.74747 13.3543C2.85047 13.4699 2.99016 13.5348 3.13582 13.5348H5.90239C6.04805 13.5348 6.18774 13.4699 6.29074 13.3543C6.39374 13.2388 6.4516 13.082 6.4516 12.9186V9.75257C6.4516 9.58915 6.39374 9.43243 6.29074 9.31687C6.18774 9.20131 6.04805 9.1364 5.90239 9.1364ZM5.35318 12.3024H3.68503V10.3687H5.35318V12.3024ZM11.068 19.5468H8.30135C8.15569 19.5468 8.01599 19.6118 7.913 19.7273C7.81 19.8429 7.75214 19.9996 7.75214 20.163V23.3291C7.75214 23.4925 7.81 23.6492 7.913 23.7648C8.01599 23.8803 8.15569 23.9452 8.30135 23.9452H11.068C11.2137 23.9452 11.3534 23.8803 11.4564 23.7648C11.5594 23.6492 11.6173 23.4925 11.6173 23.3291V20.163C11.6173 19.9996 11.5594 19.8429 11.4564 19.7273C11.3534 19.6118 11.2137 19.5468 11.068 19.5468ZM10.5188 22.7129H8.85056V20.7792H10.5188V22.7129ZM25.0489 20.9423C25.1217 21.0839 25.1414 21.252 25.1037 21.4099C25.066 21.5677 24.974 21.7023 24.8478 21.784L24.5351 21.9866V22.3917C24.5351 22.5551 24.4772 22.7119 24.3742 22.8274C24.2712 22.943 24.1315 23.0079 23.9859 23.0079C23.769 23.0079 23.5821 22.8665 23.4928 22.6618L21.3576 24.0449C21.2951 24.0854 21.2262 24.1117 21.1547 24.1223C21.0832 24.1329 21.0105 24.1275 20.9408 24.1066C20.8712 24.0857 20.8059 24.0495 20.7486 24.0003C20.6914 23.951 20.6434 23.8896 20.6074 23.8195C20.5345 23.6779 20.5148 23.5098 20.5525 23.3519C20.5902 23.1941 20.6822 23.0595 20.8084 22.9778L23.4367 21.2752V16.2936C23.4367 15.9532 23.6825 15.6774 23.9859 15.6774C24.2892 15.6774 24.5351 15.9532 24.5351 16.2936V20.6364C24.7378 20.6206 24.9404 20.7316 25.0489 20.9423Z" fill="#0054A6"/>
</svg>
