<svg width="24" height="24" viewBox="0 0 24 24" fill="none" xmlns="http://www.w3.org/2000/svg">
<g clip-path="url(#clip0_415_867)">
<path d="M19.5 12C19.5 12.846 19.359 13.6605 19.101 14.4195L17.88 13.1985C17.9601 12.804 18.0003 12.4025 18 12V10.5C18 10.301 18.079 10.1103 18.2197 9.96963C18.3603 9.82897 18.5511 9.74996 18.75 9.74996C18.9489 9.74996 19.1397 9.82897 19.2803 9.96963C19.421 10.1103 19.5 10.301 19.5 10.5V12ZM12 18C13.227 18 14.367 17.6325 15.318 16.9995L16.395 18.078C15.3233 18.8527 14.0658 19.3304 12.75 19.4625V22.5H17.25C17.4489 22.5 17.6397 22.579 17.7803 22.7196C17.921 22.8603 18 23.051 18 23.25C18 23.4489 17.921 23.6396 17.7803 23.7803C17.6397 23.9209 17.4489 24 17.25 24H6.75C6.55109 24 6.36032 23.9209 6.21967 23.7803C6.07902 23.6396 6 23.4489 6 23.25C6 23.051 6.07902 22.8603 6.21967 22.7196C6.36032 22.579 6.55109 22.5 6.75 22.5H11.25V19.4625C9.40003 19.2765 7.68506 18.4101 6.43782 17.0312C5.19058 15.6523 4.49998 13.8593 4.5 12V10.5C4.5 10.301 4.57902 10.1103 4.71967 9.96963C4.86032 9.82897 5.05109 9.74996 5.25 9.74996C5.44891 9.74996 5.63968 9.82897 5.78033 9.96963C5.92098 10.1103 6 10.301 6 10.5V12C6 13.5913 6.63214 15.1174 7.75736 16.2426C8.88258 17.3678 10.4087 18 12 18ZM16.5 4.49996V11.8185L15 10.3185V4.49996C15.0035 3.71735 14.701 2.96436 14.157 2.40166C13.6131 1.83895 12.8708 1.51108 12.0886 1.48798C11.3063 1.46489 10.5459 1.7484 9.96977 2.27804C9.3936 2.80768 9.04721 3.5415 9.0045 4.32296L7.737 3.05546C8.08041 2.04632 8.7708 1.19179 9.68525 0.644007C10.5997 0.0962211 11.6789 -0.109276 12.7307 0.0640998C13.7824 0.237475 14.7386 0.778472 15.4288 1.59078C16.1191 2.40309 16.4986 3.43399 16.5 4.49996Z" fill="#9CA3AF"/>
<path d="M14.229 15.9105L13.107 14.7885C12.6519 14.9692 12.1595 15.0357 11.6728 14.9823C11.1861 14.9289 10.7199 14.7572 10.3148 14.4822C9.90975 14.2071 9.57814 13.8371 9.34895 13.4045C9.11976 12.9718 8.99996 12.4896 8.99999 12V10.683L7.49999 9.18299V12C7.49976 12.788 7.70644 13.5622 8.09936 14.2452C8.49227 14.9282 9.05765 15.4961 9.73894 15.892C10.4202 16.288 11.1935 16.4981 11.9815 16.5013C12.7695 16.5045 13.5445 16.3008 14.229 15.9105ZM2.46899 2.03099L20.469 20.031L21.531 18.969L3.53099 0.968994L2.46899 2.03099Z" fill="#9CA3AF"/>
<path d="M2.75 1.25L21.25 19.75" stroke="#EF4444" stroke-width="1.5" stroke-linecap="round"/>
</g>
<defs>
<clipPath id="clip0_415_867">
<rect width="24" height="24" fill="white"/>
</clipPath>
</defs>
</svg>
