<svg width="20" height="20" viewBox="0 0 20 20" fill="none" xmlns="http://www.w3.org/2000/svg">
<g clip-path="url(#clip0_2034_5469)">
<path d="M16.25 9.99992C16.25 10.7049 16.1325 11.3837 15.9175 12.0162L14.9 10.9987C14.9667 10.67 15.0003 10.3354 15 9.99992V8.74992C15 8.58416 15.0658 8.42519 15.1831 8.30798C15.3003 8.19077 15.4592 8.12492 15.625 8.12492C15.7908 8.12492 15.9497 8.19077 16.0669 8.30798C16.1842 8.42519 16.25 8.58416 16.25 8.74992V9.99992ZM10 14.9999C11.0225 14.9999 11.9725 14.6937 12.765 14.1662L13.6625 15.0649C12.7694 15.7106 11.7215 16.1086 10.625 16.2187V18.7499H14.375C14.5408 18.7499 14.6997 18.8158 14.8169 18.933C14.9342 19.0502 15 19.2092 15 19.3749C15 19.5407 14.9342 19.6997 14.8169 19.8169C14.6997 19.9341 14.5408 19.9999 14.375 19.9999H5.625C5.45924 19.9999 5.30027 19.9341 5.18306 19.8169C5.06585 19.6997 5 19.5407 5 19.3749C5 19.2092 5.06585 19.0502 5.18306 18.933C5.30027 18.8158 5.45924 18.7499 5.625 18.7499H9.375V16.2187C7.83336 16.0637 6.40422 15.3417 5.36485 14.1926C4.32548 13.0435 3.74998 11.5493 3.75 9.99992V8.74992C3.75 8.58416 3.81585 8.42519 3.93306 8.30798C4.05027 8.19077 4.20924 8.12492 4.375 8.12492C4.54076 8.12492 4.69973 8.19077 4.81694 8.30798C4.93415 8.42519 5 8.58416 5 8.74992V9.99992C5 11.326 5.52678 12.5978 6.46447 13.5355C7.40215 14.4731 8.67392 14.9999 10 14.9999ZM13.75 3.74992V9.84867L12.5 8.59867V3.74992C12.5029 3.09775 12.2508 2.47026 11.7975 2.00134C11.3443 1.53242 10.7257 1.25919 10.0738 1.23994C9.4219 1.2207 8.78829 1.45696 8.30815 1.89833C7.828 2.33969 7.53934 2.95121 7.50375 3.60242L6.4475 2.54617C6.73368 1.70522 7.309 0.99312 8.07104 0.536632C8.83309 0.0801436 9.7324 -0.0911039 10.6089 0.0533758C11.4854 0.197855 12.2821 0.648686 12.8573 1.32561C13.4325 2.00253 13.7489 2.86162 13.75 3.74992Z" fill="#9CA3AF"/>
<path d="M11.8575 13.2589L10.9225 12.3239C10.5433 12.4744 10.133 12.5299 9.72738 12.4854C9.32179 12.4409 8.93326 12.2978 8.59569 12.0686C8.25813 11.8394 7.98179 11.5311 7.7908 11.1705C7.59981 10.81 7.49997 10.4081 7.5 10.0001V8.90262L6.25 7.65262V10.0001C6.24981 10.6568 6.42204 11.302 6.74947 11.8711C7.0769 12.4403 7.54805 12.9136 8.11579 13.2435C8.68353 13.5734 9.32795 13.7485 9.98459 13.7512C10.6412 13.7539 11.2871 13.5841 11.8575 13.2589ZM2.0575 1.69262L17.0575 16.6926L17.9425 15.8076L2.9425 0.807617L2.0575 1.69262Z" fill="#9CA3AF"/>
<path d="M2.29167 1.0415L17.7083 16.4582" stroke="#EF4444" stroke-width="1.5" stroke-linecap="round"/>
</g>
<defs>
<clipPath id="clip0_2034_5469">
<rect width="20" height="20" fill="white"/>
</clipPath>
</defs>
</svg>
