<svg width="20" height="20" viewBox="0 0 20 20" fill="none" xmlns="http://www.w3.org/2000/svg">
<path d="M8.7174 3.71725L8.71726 3.71738L5.01026 7.42438L4.83453 7.60012H4.586H2C1.89391 7.60012 1.79217 7.64226 1.71716 7.71727C1.64214 7.79229 1.6 7.89403 1.6 8.00012V12.0001C1.6 12.1062 1.64214 12.2079 1.71716 12.283C1.79217 12.358 1.89391 12.4001 2 12.4001H4.586H4.83453L5.01026 12.5759L8.7172 16.2828C8.77314 16.3387 8.8444 16.3768 8.92199 16.3922C8.99957 16.4076 9.07998 16.3997 9.15306 16.3695C9.22614 16.3392 9.28861 16.2879 9.33256 16.2222C9.37649 16.1564 9.39996 16.0792 9.4 16.0001C9.4 16.0001 9.4 16 9.4 16V4.00012V3.99997C9.40002 3.92086 9.37658 3.84352 9.33265 3.77774C9.28876 3.71201 9.22639 3.66075 9.1534 3.63045L8.7174 3.71725ZM8.7174 3.71725C8.77334 3.66127 8.84462 3.62315 8.92223 3.6077C8.99977 3.59226 9.08014 3.60015 9.1532 3.63036L8.7174 3.71725Z" stroke="#9CA3AF" stroke-width="1.2"/>
<path d="M16.4294 12.9921C16.354 12.9926 16.2791 12.9783 16.2092 12.9498C16.1393 12.9213 16.0757 12.8793 16.022 12.8262L14.5097 11.3129L12.9974 12.8262C12.8894 12.9362 12.7421 12.9987 12.588 13C12.4339 13.0013 12.2856 12.9413 12.1757 12.8331C12.0658 12.725 12.0033 12.5776 12.002 12.4234C12.0007 12.2692 12.0607 12.1208 12.1688 12.0108L13.688 10.4975L12.1688 8.98425C12.0607 8.87613 12 8.72948 12 8.57656C12 8.42365 12.0607 8.277 12.1688 8.16887C12.2768 8.06074 12.4234 8 12.5762 8C12.729 8 12.8756 8.06074 12.9836 8.16887L14.4959 9.68216L16.0082 8.16887C16.1163 8.06074 16.2628 8 16.4156 8C16.5684 8 16.715 8.06074 16.8231 8.16887C16.9311 8.277 16.9918 8.42365 16.9918 8.57656C16.9918 8.72948 16.9311 8.87613 16.8231 8.98425L15.3177 10.4975L16.83 12.0108C16.911 12.0911 16.9663 12.1936 16.9887 12.3055C17.0112 12.4173 16.9999 12.5333 16.9561 12.6386C16.9124 12.7439 16.8383 12.8338 16.7432 12.8968C16.6482 12.9597 16.5365 12.9929 16.4225 12.9921H16.4294Z" fill="#9CA3AF"/>
</svg>
