<svg width="20" height="20" viewBox="0 0 20 20" fill="none" xmlns="http://www.w3.org/2000/svg">
<path d="M9.4 4.00002V3.99987C9.40002 3.92076 9.37658 3.84342 9.33265 3.77764C9.28876 3.71191 9.22639 3.66066 9.1534 3.63035L9.4 4.00002ZM9.4 4.00002V15.9999C9.4 15.9999 9.4 16 9.4 16C9.39996 16.0791 9.37649 16.1563 9.33256 16.2221C9.28861 16.2878 9.22614 16.3391 9.15306 16.3694C9.07998 16.3996 8.99957 16.4076 8.92199 16.3921C8.8444 16.3767 8.77314 16.3386 8.7172 16.2827L5.01026 12.5758L4.83453 12.4M9.4 4.00002L4.83453 12.4M4.83453 12.4H4.586M4.83453 12.4H4.586M4.586 12.4H2C1.89391 12.4 1.79217 12.3579 1.71716 12.2829C1.64214 12.2078 1.6 12.1061 1.6 12V8.00002C1.6 7.89393 1.64214 7.79219 1.71716 7.71718C1.79217 7.64216 1.89391 7.60002 2 7.60002H4.586H4.83453M4.586 12.4L4.83453 7.60002M4.83453 7.60002L5.01026 7.42428M4.83453 7.60002L5.01026 7.42428M5.01026 7.42428L8.71726 3.71728L8.7174 3.71715M5.01026 7.42428L8.7174 3.71715M8.7174 3.71715C8.77334 3.66117 8.84462 3.62305 8.92223 3.6076M8.7174 3.71715L8.92223 3.6076M15.6472 3.35376L15.6468 3.35335C15.5718 3.27836 15.4701 3.23623 15.364 3.23623C15.258 3.23623 15.1563 3.27831 15.0813 3.35322C15.0813 3.35326 15.0812 3.3533 15.0812 3.35334M15.6472 3.35376L15.0812 3.35334M15.6472 3.35376C16.5211 4.22563 17.2141 5.26153 17.6865 6.40197C18.1589 7.54242 18.4014 8.76494 18.4 9.99935V10.0007C18.4014 11.2351 18.1589 12.4576 17.6865 13.5981C17.2148 14.7367 16.5233 15.7711 15.6514 16.6421C15.5763 16.7133 15.4764 16.7526 15.3728 16.7517C15.2679 16.7508 15.1676 16.7087 15.0934 16.6346C15.0193 16.5604 14.9772 16.4601 14.9763 16.3552C14.9754 16.2518 15.0146 16.152 15.0856 16.0769C15.8834 15.2802 16.5162 14.3338 16.9477 13.2921C17.3799 12.2484 17.6016 11.1296 17.6 10.0001M15.6472 3.35376L15.0812 3.35334M15.0812 3.35334C15.0063 3.42834 14.9642 3.53001 14.9642 3.63602C14.9642 3.74192 15.0062 3.84348 15.081 3.91846C15.881 4.71615 16.5154 5.66416 16.9478 6.70795C17.38 7.75161 17.6017 8.87042 17.6 10.0001M17.6 10.0001C17.6 10.0004 17.6 10.0007 17.6 10.001L17 10L17.6 9.99909C17.6 9.99941 17.6 9.99973 17.6 10.0001ZM13.6 10.001C13.601 9.39646 13.4824 8.79768 13.2509 8.23918C13.0195 7.68091 12.68 7.17393 12.2519 6.74742C12.1771 6.67228 12.1351 6.57056 12.1351 6.46452C12.1351 6.35823 12.1773 6.25629 12.2525 6.18109L12.2525 6.18104C12.2896 6.14385 12.3338 6.11435 12.3823 6.09422C12.4309 6.07409 12.4829 6.06373 12.5355 6.06373C12.5881 6.06373 12.6401 6.07409 12.6887 6.09422C12.7372 6.11435 12.7814 6.14385 12.8185 6.18104L12.8192 6.18177C13.3212 6.68258 13.7193 7.27763 13.9905 7.93275C14.2618 8.58787 14.401 9.29013 14.4 9.9992L14.4 10.0008C14.401 10.7099 14.2618 11.4122 13.9905 12.0673C13.7193 12.7224 13.3212 13.3175 12.8192 13.8183L12.8187 13.8188C12.7436 13.8939 12.6417 13.9361 12.5355 13.9361C12.4293 13.9361 12.3274 13.8939 12.2523 13.8188C12.1771 13.7436 12.1349 13.6418 12.1349 13.5355C12.1349 13.4293 12.1771 13.3274 12.2523 13.2523L11.828 12.828L12.2515 13.253C12.6797 12.8263 13.0192 12.3192 13.2507 11.7608C13.4819 11.2029 13.6006 10.6049 13.6 10.001ZM13.6 10.001L13 10L13.6 9.99921C13.6 9.99981 13.6 10.0004 13.6 10.001ZM8.92223 3.6076C8.99977 3.59216 9.08014 3.60005 9.1532 3.63027L8.92223 3.6076Z" stroke="#9CA3AF" stroke-width="1.2"/>
</svg>
