<svg width="40" height="40" viewBox="0 0 40 40" fill="none" xmlns="http://www.w3.org/2000/svg">
<g clip-path="url(#clip0_1150_3973)">
<path fill-rule="evenodd" clip-rule="evenodd" d="M20 7.67446C23.2856 7.67446 25.9535 10.3424 25.9535 13.6279C25.9535 15.4214 25.0958 17.7507 23.7507 19.321C22.7107 20.5358 21.3879 21.2912 20 21.2912C18.6121 21.2912 17.2893 20.5359 16.2493 19.321C14.9042 17.7507 14.0465 15.4214 14.0465 13.6279C14.0465 10.3424 16.7144 7.67446 20 7.67446ZM32.093 2.55811C34.6605 2.55811 36.7442 4.64183 36.7442 7.20927C36.7442 8.57113 36.0967 10.3423 35.0754 11.5348C34.2512 12.4985 33.1926 13.0809 32.093 13.0809C30.9935 13.0809 29.9349 12.4986 29.1107 11.5349C28.0893 10.3424 27.4418 8.5712 27.4418 7.20927C27.4419 4.64183 29.5256 2.55811 32.093 2.55811ZM7.90698 2.55811C10.4744 2.55811 12.5581 4.64183 12.5581 7.20927C12.5581 8.57113 11.9107 10.3423 10.8893 11.5348C10.0651 12.4985 9.00655 13.0809 7.90698 13.0809C6.80741 13.0809 5.74884 12.4986 4.92461 11.5349C3.90318 10.3424 3.25574 8.5712 3.25574 7.20927C3.25581 4.64183 5.33953 2.55811 7.90698 2.55811ZM20 22.2791C25.8047 22.2791 30.5116 26.9861 30.5116 32.7907V34.7442C30.5116 36.2345 29.3042 37.4419 27.814 37.4419H12.186C10.6958 37.4419 9.48837 36.2345 9.48837 34.7442V32.7907C9.48837 26.9861 14.1953 22.2791 20 22.2791ZM9.78043 25.8139H2.32558C1.04186 25.8139 0 24.7721 0 23.4884V22.0931C0 17.7265 3.54043 14.1861 7.90698 14.1861C9.58694 14.1861 11.1442 14.7088 12.4242 15.6019C12.8149 17.3321 13.6689 19.1684 14.8353 20.5302C15.0521 20.7832 15.2825 21.0242 15.5255 21.2521C13.1814 22.1619 11.1814 23.7675 9.78043 25.8139ZM27.5758 15.6019C28.8558 14.7088 30.4131 14.1861 32.093 14.1861C36.4596 14.1861 40 17.7265 40 22.0931V23.4884C40 24.7721 38.9581 25.814 37.6744 25.814H30.2196C28.8186 23.7675 26.8186 22.1619 24.4745 21.2521C24.7176 21.0243 24.948 20.7833 25.1647 20.5303C26.3311 19.1684 27.1851 17.3321 27.5758 15.6019Z" fill="white"/>
</g>
<defs>
<clipPath id="clip0_1150_3973">
<rect width="40" height="40" fill="white"/>
</clipPath>
</defs>
</svg>
