<svg width="16" height="16" viewBox="0 0 16 16" fill="none" xmlns="http://www.w3.org/2000/svg">
<path d="M10.4271 3.85341C10.4271 4.91234 10.0474 5.82897 9.29823 6.57825C8.54907 7.32741 7.63232 7.70716 6.57338 7.70716H6.57154C5.51391 7.70678 4.59779 7.32703 3.84863 6.57825C3.09938 5.82897 2.71973 4.91234 2.71973 3.85341C2.71973 2.79481 3.09938 1.87806 3.84863 1.12891C4.59741 0.38 5.51357 0.000375 6.57154 0H6.57338C7.63198 0 8.5487 0.37975 9.29823 1.12891C10.0474 1.87806 10.4271 2.79481 10.4271 3.85341Z" fill="#FFBB85"/>
<path d="M13.349 13.248C13.349 14.0835 13.0833 14.7599 12.5598 15.258C12.0425 15.7504 11.3582 15.9998 10.5264 15.9998H2.82228C1.99034 15.9998 1.30616 15.7504 0.789156 15.2581C0.265437 14.7595 0 14.0833 0 13.2481C0 12.9268 0.010625 12.6089 0.031875 12.3032C0.0534375 11.9907 0.0971875 11.6506 0.161625 11.2919C0.226562 10.9302 0.310062 10.5883 0.410062 10.2758C0.513812 9.95227 0.654188 9.6332 0.827875 9.32752C1.00831 9.01027 1.22022 8.73389 1.45775 8.50636C1.70681 8.2682 2.01122 8.07692 2.36316 7.93752C2.71388 7.79883 3.10266 7.72852 3.51869 7.72852C3.68187 7.72852 3.83994 7.7953 4.14463 7.9938C4.36164 8.13513 4.5793 8.27546 4.79759 8.4148C5.00709 8.54836 5.29078 8.67361 5.64147 8.78677C5.94972 8.88648 6.26256 8.94214 6.57166 8.95177C6.60572 8.95302 6.63978 8.95364 6.67384 8.95364C7.01709 8.95364 7.36425 8.89736 7.70653 8.78677C8.05725 8.67361 8.34131 8.54833 8.55066 8.4148C8.76888 8.2756 8.98645 8.13539 9.20337 7.99417C9.50831 7.7953 9.66613 7.72855 9.82972 7.72855C10.2453 7.72855 10.6342 7.79886 10.9851 7.93752C11.337 8.07689 11.6415 8.26858 11.8903 8.50636C12.1282 8.73389 12.3401 9.01027 12.5204 9.32752C12.6942 9.63345 12.8348 9.95227 12.9382 10.2754C13.0383 10.5883 13.1221 10.9302 13.187 11.2921C13.2511 11.6513 13.2949 11.9913 13.3164 12.303C13.338 12.6077 13.3486 12.9255 13.349 13.248Z" fill="#6AA9FF"/>
<path d="M6.57362 7.70716H6.57178V0H6.57362C7.63222 0 8.54893 0.37975 9.29846 1.12891C10.0476 1.87806 10.4274 2.79481 10.4274 3.85341C10.4274 4.91234 10.0476 5.82897 9.29846 6.57825C8.54931 7.32741 7.63256 7.70716 6.57362 7.70716Z" fill="#F5A86C"/>
<path d="M13.3491 13.248C13.3491 14.0835 13.0834 14.7599 12.5599 15.258C12.0426 15.7504 11.3584 15.9997 10.5265 15.9997H6.57178V8.95177C6.60584 8.95298 6.6399 8.95358 6.67396 8.95358C7.01721 8.95358 7.36437 8.89733 7.70665 8.7867C8.05737 8.67358 8.34143 8.54833 8.55078 8.41477C8.769 8.27557 8.98657 8.13536 9.2035 7.99414C9.50843 7.79527 9.66625 7.72852 9.82984 7.72852C10.2455 7.72852 10.6343 7.79883 10.9852 7.93748C11.3372 8.07686 11.6416 8.26855 11.8904 8.50633C12.1283 8.73386 12.3402 9.01023 12.5205 9.32748C12.6943 9.63342 12.835 9.95223 12.9383 10.2754C13.0385 10.5882 13.1222 10.9301 13.1871 11.2921C13.2512 11.6512 13.295 11.9913 13.3165 12.303C13.3381 12.6076 13.3487 12.9255 13.3491 13.248Z" fill="#2682FF"/>
</svg>
