<svg width="28" height="28" viewBox="0 0 28 28" fill="none" xmlns="http://www.w3.org/2000/svg">
<path d="M12.0833 10C12.0833 9.58579 11.7475 9.25 11.3333 9.25C10.9191 9.25 10.5833 9.58579 10.5833 10V18C10.5833 18.4142 10.9191 18.75 11.3333 18.75C11.7475 18.75 12.0833 18.4142 12.0833 18V10ZM17.4167 10C17.4167 9.58579 17.0809 9.25 16.6667 9.25C16.2525 9.25 15.9167 9.58579 15.9167 10V18C15.9167 18.4142 16.2525 18.75 16.6667 18.75C17.0809 18.75 17.4167 18.4142 17.4167 18V10ZM25.25 14C25.25 15.4774 24.959 16.9403 24.3936 18.3052C23.8283 19.6701 22.9996 20.9103 21.955 21.955C20.9103 22.9996 19.6701 23.8283 18.3052 24.3936C16.9403 24.959 15.4774 25.25 14 25.25C12.5226 25.25 11.0597 24.959 9.69481 24.3936C8.3299 23.8283 7.08971 22.9996 6.04505 21.955C5.00039 20.9103 4.17172 19.6701 3.60636 18.3052C3.04099 16.9403 2.75 15.4774 2.75 14C2.75 11.0163 3.93526 8.15483 6.04505 6.04505C8.15483 3.93526 11.0163 2.75 14 2.75C16.9837 2.75 19.8452 3.93526 21.955 6.04505C24.0647 8.15483 25.25 11.0163 25.25 14Z" stroke="#D1D5DB" stroke-width="1.5" stroke-linecap="round" stroke-linejoin="round"/>
</svg>
