<svg width="28" height="28" viewBox="0 0 28 28" fill="none" xmlns="http://www.w3.org/2000/svg">
<path d="M14 2.75C20.2108 2.75 25.25 7.78921 25.25 14C25.25 20.2108 20.2108 25.25 14 25.25C7.78921 25.25 2.75 20.2108 2.75 14C2.75 7.78921 7.78921 2.75 14 2.75Z" stroke="#D1D5DB" stroke-width="1.5" stroke-miterlimit="10"/>
<path d="M11.0801 18.9042L18.6543 14.5814C18.7598 14.5207 18.8471 14.4353 18.9076 14.3335C18.9682 14.2316 19 14.1168 19 14C19 13.8832 18.9682 13.7684 18.9076 13.6665C18.8471 13.5647 18.7598 13.4793 18.6543 13.4186L11.0801 9.09582C10.9715 9.03437 10.8476 9.00131 10.721 9.00004C10.5945 8.99876 10.4698 9.02931 10.3599 9.08856C10.25 9.1478 10.1587 9.23361 10.0955 9.33717C10.0322 9.44074 9.99928 9.55833 10 9.67789V18.3221C9.99928 18.4417 10.0322 18.5593 10.0955 18.6628C10.1587 18.7664 10.25 18.8522 10.3599 18.9114C10.4698 18.9707 10.5945 19.0012 10.721 19C10.8476 18.9987 10.9715 18.9656 11.0801 18.9042Z" fill="#D1D5DB"/>
</svg>
