<svg width="24" height="24" viewBox="0 0 24 24" fill="none" xmlns="http://www.w3.org/2000/svg">
<path d="M2.72264 2.00101C2.60329 2.00546 2.48672 2.03834 2.38265 2.09692C2.27857 2.15551 2.18998 2.2381 2.12426 2.33783C2.05854 2.43755 2.01759 2.55153 2.0048 2.67028C1.99202 2.78903 2.00778 2.90911 2.05076 3.02054L4.80076 10.1211C4.84809 10.2429 4.92643 10.3503 5.028 10.4325C5.12958 10.5147 5.25087 10.569 5.37987 10.5899L12.8506 11.8028C13.0367 11.8329 13.0185 11.8867 13.0185 12C13.0185 12.1134 13.0367 12.1671 12.8506 12.1973L5.37987 13.4102C5.25087 13.4311 5.12958 13.4854 5.028 13.5676C4.92643 13.6498 4.84809 13.7571 4.80076 13.8789L2.05076 20.9795C1.99633 21.1206 1.98582 21.2748 2.02059 21.422C2.05537 21.5692 2.13382 21.7024 2.24564 21.8042C2.35747 21.906 2.49745 21.9716 2.64723 21.9924C2.79701 22.0133 2.94958 21.9883 3.08494 21.9209L21.5849 12.6709C21.7095 12.6086 21.8143 12.5129 21.8876 12.3944C21.9608 12.2759 21.9996 12.1393 21.9996 12C21.9996 11.8607 21.9608 11.7242 21.8876 11.6057C21.8143 11.4872 21.7095 11.3914 21.5849 11.3291L3.08494 2.07913C2.97261 2.0232 2.84804 1.99633 2.72264 2.00101Z" fill="white"/>
</svg>
