<svg width="24" height="24" viewBox="0 0 24 24" fill="none" xmlns="http://www.w3.org/2000/svg">
<path d="M9.142 21.5855C7.48803 21.0917 5.99009 20.178 4.794 18.9335C5.17884 18.4771 5.41874 17.9162 5.483 17.3226C5.54726 16.7291 5.43296 16.1299 5.15472 15.6016C4.87649 15.0734 4.44698 14.6402 3.92115 14.3575C3.39531 14.0747 2.79708 13.9553 2.203 14.0145C2.06766 13.3516 1.99965 12.6766 2 12C2 10.955 2.16 9.94702 2.458 9.00002H2.5C3.00988 9.00018 3.51139 8.87039 3.95717 8.62289C4.40295 8.37539 4.7783 8.01836 5.04777 7.58551C5.31724 7.15266 5.47194 6.65827 5.49726 6.14902C5.52259 5.63977 5.4177 5.13247 5.1925 4.67502C6.3648 3.58343 7.78253 2.78993 9.326 2.36152C9.57719 2.85472 9.95992 3.26881 10.4319 3.55799C10.9038 3.84717 11.4465 4.00015 12 4.00002C12.5535 4.00015 13.0962 3.84717 13.5681 3.55799C14.0401 3.26881 14.4228 2.85472 14.674 2.36152C16.2175 2.78993 17.6352 3.58343 18.8075 4.67502C18.5807 5.13567 18.4759 5.64684 18.5031 6.15959C18.5304 6.67235 18.6888 7.16952 18.9632 7.60353C19.2376 8.03754 19.6188 8.39385 20.0703 8.63836C20.5219 8.88287 21.0286 9.00739 21.542 9.00002C21.8465 9.97087 22.0009 10.9825 22 12C22 12.69 21.93 13.364 21.797 14.015C21.2029 13.9558 20.6047 14.0752 20.0789 14.358C19.553 14.6407 19.1235 15.0739 18.8453 15.6021C18.567 16.1304 18.4527 16.7296 18.517 17.3231C18.5813 17.9167 18.8212 18.4776 19.206 18.934C18.0099 20.1784 16.5119 21.0918 14.858 21.5855C14.6638 20.9802 14.2824 20.4521 13.7687 20.0775C13.2551 19.7029 12.6357 19.501 12 19.501C11.3643 19.501 10.7449 19.7029 10.2313 20.0775C9.71765 20.4521 9.33623 20.9802 9.142 21.5855Z" stroke="#D1D5DB" stroke-linejoin="round"/>
<path d="M12 15.5C12.4596 15.5 12.9148 15.4095 13.3394 15.2336C13.764 15.0577 14.1499 14.7999 14.4749 14.4749C14.7999 14.1499 15.0577 13.764 15.2336 13.3394C15.4095 12.9148 15.5 12.4596 15.5 12C15.5 11.5404 15.4095 11.0853 15.2336 10.6606C15.0577 10.236 14.7999 9.85015 14.4749 9.52514C14.1499 9.20014 13.764 8.94233 13.3394 8.76644C12.9148 8.59055 12.4596 8.50002 12 8.50002C11.0717 8.50002 10.1815 8.86876 9.52513 9.52514C8.86875 10.1815 8.5 11.0718 8.5 12C8.5 12.9283 8.86875 13.8185 9.52513 14.4749C10.1815 15.1313 11.0717 15.5 12 15.5Z" stroke="#D1D5DB" stroke-linejoin="round"/>
</svg>
