<svg width="20" height="20" viewBox="0 0 20 20" fill="none" xmlns="http://www.w3.org/2000/svg">
<path d="M2.61418 4.80313H6.01575L6.8819 2.97636C7.08662 2.51966 7.29134 2.34644 7.62205 2.34644H12.6614C13.0079 2.34644 13.2598 2.61415 13.4173 2.97636L14.2835 4.80313H17.3858C17.8761 4.80033 18.3511 4.97356 18.7244 5.29132C19.1024 5.60628 19.3386 6.07872 19.3386 6.58266V15.874C19.3361 16.1209 19.2799 16.3643 19.1738 16.5873C19.0677 16.8103 18.9144 17.0076 18.7244 17.1653C18.3511 17.4831 17.8761 17.6563 17.3858 17.6535H2.61418C2.12392 17.6563 1.64894 17.4831 1.2756 17.1653C1.08562 17.0076 0.932266 16.8103 0.826204 16.5873C0.720142 16.3643 0.663912 16.1209 0.661423 15.874V6.58266C0.661423 6.07872 0.897643 5.62203 1.2756 5.29132C1.64894 4.97356 2.12392 4.80033 2.61418 4.80313ZM6.62993 6.17321H2.75591C2.55501 6.16498 2.35832 6.23242 2.20473 6.36218C2.15589 6.40586 2.11667 6.45921 2.08956 6.51885C2.06245 6.5785 2.04804 6.64313 2.04725 6.70864V15.7323C2.04775 15.8017 2.06353 15.8701 2.09347 15.9327C2.12341 15.9953 2.16678 16.0505 2.22048 16.0945C2.34646 16.2047 2.53544 16.2834 2.75591 16.2834H17.2441C17.4396 16.2877 17.63 16.2206 17.7795 16.0945C17.8332 16.0505 17.8766 15.9953 17.9065 15.9327C17.9365 15.8701 17.9523 15.8017 17.9528 15.7323V6.70864C17.952 6.64313 17.9376 6.5785 17.9104 6.51885C17.8833 6.45921 17.8441 6.40586 17.7953 6.36218C17.6458 6.2361 17.4554 6.1689 17.2598 6.17321H13.6693C13.4331 6.12596 13.1654 5.8425 13.0394 5.54329L12.378 4.03147C12.3235 3.89773 12.2294 3.78383 12.1084 3.70503C11.9874 3.62622 11.8451 3.58627 11.7008 3.59053H8.59843C8.45587 3.58501 8.31497 3.62264 8.19415 3.6985C8.07333 3.77437 7.97822 3.88493 7.92127 4.01573L7.25985 5.55903C7.11812 5.8425 6.89764 6.14171 6.61418 6.17321H6.62993Z" fill="#9CA3AF"/>
<path d="M7.87402 9.57488C7.76826 9.67294 7.63206 9.73174 7.48816 9.74145C7.34427 9.75117 7.2014 9.71121 7.08342 9.62826C6.96544 9.5453 6.8795 9.42438 6.83995 9.28568C6.80041 9.14699 6.80965 8.99892 6.86615 8.86622C7.25991 8.28375 7.80774 7.82212 8.44853 7.53279C9.08931 7.24346 9.79788 7.13781 10.4952 7.22763C11.1925 7.31745 11.8512 7.5992 12.3977 8.04147C12.9443 8.48373 13.3572 9.06913 13.5906 9.73236C13.6108 9.87649 13.5806 10.0232 13.5049 10.1475C13.4293 10.2719 13.3129 10.3662 13.1756 10.4144C13.0383 10.4626 12.8885 10.4619 12.7517 10.4122C12.6149 10.3625 12.4995 10.2669 12.4252 10.1418C12.2704 9.68943 11.9916 9.28965 11.6206 8.98806C11.2496 8.68648 10.8012 8.49523 10.3268 8.43613C9.85231 8.37703 9.37078 8.45245 8.93711 8.65379C8.50343 8.85514 8.13507 9.1743 7.87402 9.57488Z" fill="#9CA3AF"/>
<path fill-rule="evenodd" clip-rule="evenodd" d="M13.5906 11.4646L13.9685 10.252L14.3307 9.02368L12.8504 9.60636L11.3701 10.2048L12.4724 10.8347L13.5906 11.4646Z" fill="#9CA3AF"/>
<path d="M12.063 12.4252C12.0967 12.3358 12.1503 12.2552 12.2197 12.1895C12.2892 12.1238 12.3726 12.0748 12.4638 12.0462C12.555 12.0176 12.6515 12.0101 12.746 12.0243C12.8406 12.0385 12.9306 12.074 13.0094 12.1281C13.0881 12.1823 13.1535 12.2536 13.2006 12.3368C13.2477 12.42 13.2753 12.5128 13.2812 12.6082C13.2871 12.7035 13.2713 12.799 13.2348 12.8874C13.1984 12.9758 13.1423 13.0547 13.0709 13.1181C12.6759 13.6963 12.1288 14.1539 11.4899 14.4403C10.8511 14.7268 10.1454 14.831 9.45105 14.7413C8.75668 14.6517 8.10063 14.3717 7.55549 13.9324C7.01034 13.493 6.59736 12.9115 6.36221 12.252C6.30791 12.0933 6.31889 11.9195 6.39272 11.7689C6.46655 11.6183 6.59719 11.5031 6.75591 11.4488C6.91462 11.3945 7.0884 11.4055 7.23902 11.4794C7.38964 11.5532 7.50476 11.6838 7.55906 11.8425C7.71589 12.2883 7.99344 12.6817 8.36077 12.979C8.7281 13.2762 9.17077 13.4656 9.63942 13.526C10.1081 13.5865 10.5843 13.5155 11.015 13.3212C11.4457 13.1268 11.814 12.8166 12.0787 12.4252H12.063Z" fill="#9CA3AF"/>
<path fill-rule="evenodd" clip-rule="evenodd" d="M6.34647 10.5354L5.98426 11.748L5.60631 12.9763L7.08662 12.3779L8.56694 11.7952L7.46458 11.1653L6.34647 10.5354Z" fill="#9CA3AF"/>
</svg>
