<svg width="24" height="24" viewBox="0 0 24 24" fill="none" xmlns="http://www.w3.org/2000/svg">
<path d="M0 4H24V20.0002H0V4Z" fill="#F0F0F0"/>
<path d="M13.5 4H10.5V10.5H0V13.5H10.5V19.9999H13.5V13.5H24V10.5H13.5V4Z" fill="#D80027"/>
<path d="M18.4584 14.7822L23.9997 17.8608V14.7822H18.4584ZM14.6084 14.7822L23.9997 19.9996V18.5243L17.2641 14.7822H14.6084ZM21.4982 19.9996L14.6084 16.1716V19.9996H21.4982Z" fill="#0052B4"/>
<path d="M14.6084 14.7822L23.9997 19.9996V18.5243L17.2641 14.7822H14.6084Z" fill="#F0F0F0"/>
<path d="M14.6084 14.7822L23.9997 19.9996V18.5243L17.2641 14.7822H14.6084Z" fill="#D80027"/>
<path d="M4.23473 14.7822L0 17.1349V14.7822H4.23473ZM9.39131 15.4457V19.9996H1.19489L9.39131 15.4457Z" fill="#0052B4"/>
<path d="M6.73561 14.7822L0 18.5243V19.9996L9.39131 14.7822H6.73561Z" fill="#D80027"/>
<path d="M5.54133 9.21738L0 6.13881V9.21738H5.54133ZM9.39131 9.21738L0 4V5.47534L6.73561 9.21738H9.39131ZM2.50153 4L9.39131 7.828V4H2.50153Z" fill="#0052B4"/>
<path d="M9.39131 9.21738L0 4V5.47534L6.73561 9.21738H9.39131Z" fill="#F0F0F0"/>
<path d="M9.39131 9.21738L0 4V5.47534L6.73561 9.21738H9.39131Z" fill="#D80027"/>
<path d="M19.765 9.21742L23.9997 6.86477V9.21742H19.765ZM14.6084 8.55395V4H22.8048L14.6084 8.55395Z" fill="#0052B4"/>
<path d="M17.2641 9.21738L23.9997 5.47534V4L14.6084 9.21738H17.2641Z" fill="#D80027"/>
</svg>
