<svg width="20" height="20" viewBox="0 0 20 20" fill="none" xmlns="http://www.w3.org/2000/svg">
<path fill-rule="evenodd" clip-rule="evenodd" d="M13.3311 14.7901C13.6514 14.4562 13.8567 14.033 13.9184 13.5797L17.4171 15.0963C17.5884 15.1707 17.776 15.2022 17.9629 15.1879C18.1498 15.1737 18.3301 15.114 18.4874 15.0145C18.6447 14.9149 18.7739 14.7786 18.8635 14.6179C18.953 14.4572 18.9999 14.2773 19 14.0944L19 5.90562C18.9998 5.72288 18.9529 5.54307 18.8634 5.38251C18.774 5.22196 18.6448 5.08573 18.4877 4.98621C18.3306 4.88669 18.1505 4.82701 17.9637 4.8126C17.7769 4.7982 17.5895 4.82951 17.4182 4.9037L13.9184 6.4203C13.8469 5.89255 13.5812 5.40813 13.1708 5.05726C12.7604 4.70638 12.2332 4.51297 11.6875 4.51303L5.806 4.51303L6.60925 5.61043L11.6875 5.61043C11.9859 5.61043 12.272 5.72604 12.483 5.93184C12.694 6.13765 12.8125 6.41677 12.8125 6.70782L12.8125 13.2922C12.8127 13.4925 12.7567 13.6891 12.6505 13.8606L13.3311 14.7901ZM2.6065 5.80796C2.45789 5.90904 2.33651 6.04365 2.25268 6.20032C2.16885 6.35699 2.12505 6.53109 2.125 6.70782L2.125 13.2922C2.125 13.5832 2.24353 13.8624 2.4545 14.0682C2.66548 14.274 2.95163 14.3896 3.25 14.3896L8.89075 14.3896L9.694 15.487L3.25 15.487C2.65326 15.487 2.08097 15.2557 1.65901 14.8441C1.23705 14.4325 1 13.8743 1 13.2922L1 6.70782C1 5.96708 1.37575 5.31193 1.95288 4.91468L2.6065 5.80796ZM17.875 14.0933L13.9375 12.3868V7.61317L17.875 5.90562L17.875 14.0933ZM12.9171 18L1.66712 2.63649L2.58287 2L13.8329 17.3635L12.9171 18Z" fill="#9CA3AF"/>
</svg>
