<svg width="20" height="20" viewBox="0 0 20 20" fill="none" xmlns="http://www.w3.org/2000/svg">
<path d="M13.3333 13.5417C13.3333 15.0375 12.1208 16.25 10.625 16.25H4.37499C2.87916 16.25 1.66666 15.0375 1.66666 13.5417V6.45833C1.66666 4.9625 2.87916 3.75 4.37499 3.75H10.625C12.1208 3.75 13.3333 4.9625 13.3333 6.45833V13.5417ZM18.0162 5.49792C17.8204 5.38708 17.58 5.39 17.3867 5.50583L14.1667 7.43792V12.5621L17.3871 14.4942C17.4858 14.5537 17.5967 14.5833 17.7083 14.5833C17.8146 14.5833 17.9208 14.5562 18.0162 14.5021C18.2121 14.3912 18.3333 14.1838 18.3333 13.9583V6.04167C18.3333 5.81625 18.2121 5.60875 18.0162 5.49792Z" fill="white"/>
</svg>
