<svg width="24" height="24" viewBox="0 0 24 24" fill="none" xmlns="http://www.w3.org/2000/svg">
<path d="M7.64795 9.25V14.75M11.2919 9.25V14.75M7.64795 11.9895H11.2919M12.7079 14.75V9.25H13.9454C14.2615 9.2498 14.5746 9.31191 14.8666 9.43278C15.1587 9.55365 15.424 9.7309 15.6475 9.95441C15.871 10.1779 16.0483 10.4433 16.1692 10.7353C16.29 11.0274 16.3521 11.3404 16.3519 11.6565V12.344C16.3521 12.6601 16.2899 12.9731 16.169 13.2651C16.048 13.5572 15.8707 13.8225 15.6472 14.0459C15.4236 14.2694 15.1582 14.4466 14.8661 14.5674C14.5741 14.6882 14.261 14.7503 13.9449 14.75H12.7079Z" stroke="#D1D5DB" stroke-linecap="round" stroke-linejoin="round"/>
<path d="M19.25 2.75H4.75C3.64543 2.75 2.75 3.64543 2.75 4.75V19.25C2.75 20.3546 3.64543 21.25 4.75 21.25H19.25C20.3546 21.25 21.25 20.3546 21.25 19.25V4.75C21.25 3.64543 20.3546 2.75 19.25 2.75Z" stroke="#D1D5DB" stroke-linecap="round" stroke-linejoin="round"/>
</svg>
