<svg width="16" height="16" viewBox="0 0 16 16" fill="none" xmlns="http://www.w3.org/2000/svg">
<path d="M11.4234 4.2V0.5H4.57617V4.2C4.57617 5.56675 5.36623 6.747 6.5108 7.30288C6.76936 7.42844 6.9373 7.68819 6.9373 7.97762V8.02244C6.9373 8.31187 6.76936 8.57156 6.5108 8.69719C5.36623 9.25306 4.57617 10.4332 4.57617 11.8001V15.5H11.4234V11.8C11.4234 10.4333 10.6334 9.253 9.4888 8.69713C9.23023 8.57156 9.0623 8.31181 9.0623 8.02238V7.97756C9.0623 7.68812 9.23023 7.42844 9.4888 7.30281C10.6334 6.747 11.4234 5.56681 11.4234 4.2Z" fill="#FFEACF"/>
<path d="M10.9236 11.9873C10.8739 11.9873 10.8262 11.9676 10.791 11.9324C10.7558 11.8973 10.7361 11.8496 10.7361 11.7998C10.7361 10.7471 10.1287 9.77196 9.18859 9.3154C9.14431 9.29341 9.1105 9.25482 9.09453 9.20803C9.07855 9.16124 9.08171 9.11003 9.10331 9.06555C9.12491 9.02108 9.1632 8.98693 9.20985 8.97055C9.25651 8.95417 9.30774 8.95688 9.35241 8.97809C10.4208 9.4969 11.1111 10.6045 11.1111 11.7998C11.1111 11.8244 11.1063 11.8488 11.0968 11.8715C11.0874 11.8943 11.0736 11.915 11.0562 11.9324C11.0388 11.9498 11.0181 11.9636 10.9954 11.9731C10.9726 11.9825 10.9482 11.9873 10.9236 11.9873Z" fill="#FCF9DE"/>
<path d="M8.2608 8.69713C8.51936 8.5715 8.6873 8.31181 8.6873 8.02238V7.97756C8.6873 7.68812 8.51936 7.42844 8.2608 7.30281C7.11623 6.74694 6.32617 5.56675 6.32617 4.19994V0.5H4.57617V4.2C4.57617 5.56675 5.36623 6.747 6.5108 7.30288C6.76936 7.4285 6.9373 7.68819 6.9373 7.97762V8.02244C6.9373 8.31187 6.76936 8.57156 6.5108 8.69719C5.36623 9.25306 4.57617 10.4332 4.57617 11.8001V15.5H6.32617V11.8C6.32617 10.4333 7.11623 9.253 8.2608 8.69713Z" fill="#FFD59A"/>
<path d="M5.46919 5.48047C5.93482 6.40922 6.88975 7.04791 7.99038 7.04791H8.00932C9.10994 7.04791 10.0649 6.40922 10.5305 5.48047H5.46919ZM10.8332 14.5281V14.0622C10.8332 12.492 9.56644 11.2146 8.00932 11.2146H7.99038C6.43332 11.2146 5.1665 12.492 5.1665 14.0622V14.5281H10.8332Z" fill="#F9BB32"/>
<path d="M7.75 6.45215H8.25V11.4521H7.75V6.45215Z" fill="#F9BB32"/>
<path d="M6.32619 11.8004C6.32619 11.788 6.32675 11.7757 6.32688 11.7632C5.62413 12.2817 5.1665 13.1189 5.1665 14.0623V14.5282H6.32625L6.32619 11.8004ZM7.74982 9.00382C7.90758 8.88948 8.07486 8.78888 8.24982 8.70313V7.29776C8.07485 7.21203 7.90757 7.11143 7.74982 6.99707V9.00382Z" fill="#DB9C2E"/>
<path d="M7.81443 7.04203C7.25496 6.65554 6.82227 6.11224 6.5708 5.48047H5.46924C5.90986 6.35934 6.78868 6.97809 7.81443 7.04203Z" fill="#DB9C2E"/>
<path d="M11.8944 1.81927H4.10563C4.01131 1.81927 3.92085 1.7818 3.85416 1.71511C3.78747 1.64841 3.75 1.55796 3.75 1.46364V0.865391C3.75 0.771073 3.78747 0.680618 3.85416 0.613926C3.92085 0.547233 4.01131 0.509766 4.10563 0.509766H11.8944C11.9887 0.509766 12.0791 0.547233 12.1458 0.613926C12.2125 0.680618 12.25 0.771073 12.25 0.865391V1.46364C12.25 1.55796 12.2125 1.64841 12.1458 1.71511C12.0791 1.7818 11.9887 1.81927 11.8944 1.81927ZM4.10563 14.1804H11.8944C11.9887 14.1804 12.0791 14.2179 12.1458 14.2846C12.2125 14.3512 12.25 14.4417 12.25 14.536V15.1343C12.25 15.2286 12.2125 15.319 12.1458 15.3857C12.0791 15.4524 11.9887 15.4899 11.8944 15.4899H4.10563C4.01131 15.4899 3.92085 15.4524 3.85416 15.3857C3.78747 15.319 3.75 15.2286 3.75 15.1343V14.536C3.75 14.4417 3.78747 14.3512 3.85416 14.2846C3.92085 14.2179 4.01131 14.1804 4.10563 14.1804Z" fill="#BF6C0D"/>
<path d="M7.19434 3.25879C7.505 3.25879 7.75684 3.00695 7.75684 2.69629C7.75684 2.38563 7.505 2.13379 7.19434 2.13379C6.88368 2.13379 6.63184 2.38563 6.63184 2.69629C6.63184 3.00695 6.88368 3.25879 7.19434 3.25879Z" fill="#FFD59A"/>
<path d="M7.19434 13.998C7.505 13.998 7.75684 13.7462 7.75684 13.4355C7.75684 13.1249 7.505 12.873 7.19434 12.873C6.88368 12.873 6.63184 13.1249 6.63184 13.4355C6.63184 13.7462 6.88368 13.998 7.19434 13.998Z" fill="#DB9C2E"/>
<path d="M5.5 1.46364V0.865453C5.49999 0.818747 5.50918 0.772496 5.52705 0.729342C5.54492 0.686188 5.57111 0.646977 5.60414 0.613948C5.63716 0.580918 5.67637 0.554718 5.71952 0.536842C5.76267 0.518966 5.80892 0.509766 5.85563 0.509766H4.10563C4.05892 0.509766 4.01267 0.518966 3.96952 0.536842C3.92637 0.554718 3.88716 0.580918 3.85414 0.613948C3.82111 0.646977 3.79492 0.686188 3.77705 0.729342C3.75918 0.772496 3.74999 0.818747 3.75 0.865453V1.46364C3.75 1.55796 3.78747 1.64841 3.85416 1.71511C3.92085 1.7818 4.01131 1.81927 4.10563 1.81927H5.85563C5.76131 1.81927 5.67085 1.7818 5.60416 1.71511C5.53747 1.64841 5.5 1.55796 5.5 1.46364ZM5.5 15.1342V14.536C5.5 14.4417 5.53747 14.3512 5.60416 14.2846C5.67085 14.2179 5.76131 14.1804 5.85563 14.1804H4.10563C4.01131 14.1804 3.92085 14.2179 3.85416 14.2846C3.78747 14.3512 3.75 14.4417 3.75 14.536V15.1342C3.75 15.2285 3.78747 15.319 3.85416 15.3857C3.92085 15.4524 4.01131 15.4898 4.10563 15.4898H5.85563C5.80892 15.4898 5.76267 15.4806 5.71952 15.4628C5.67637 15.4449 5.63717 15.4187 5.60414 15.3857C5.57112 15.3527 5.54492 15.3135 5.52705 15.2703C5.50918 15.2272 5.49999 15.1809 5.5 15.1342Z" fill="#A56021"/>
</svg>
